<?xml version="1.0" encoding="UTF-8" standalone="no"?>
<svg
   xml:space="preserve"
   width="35"
   height="46"
   style="clip-rule:evenodd;fill-rule:evenodd;image-rendering:optimizeQuality;shape-rendering:geometricPrecision;text-rendering:geometricPrecision"
   version="1.1"
   id="svg26"
   xmlns="http://www.w3.org/2000/svg"
   xmlns:svg="http://www.w3.org/2000/svg">
    <defs
   id="defs4">
        <style
   type="text/css"
   id="style2">
            .fil0{fill:#1f1a17;fill-rule:nonzero}
        </style>
    </defs>
    <g
   id="Layer_x0020_1"
   transform="translate(-291.694 -19.493)">
        <path
   class="fil0"
   d="m15.985 33.196.304-2.271 2.119-.313.272-1.585-2.094.325.383-2.282 2.087-.326.492-2.667c.012-.06.018-.148.018-.26 0-.58-.333-.863-.994-.863-.711 0-1.549.383-2.508 1.152.182-1.2.965-2.028 2.361-2.484.418-.047.808-.076 1.153-.076 1.73 0 2.598.686 2.598 2.051 0 .19-.018.415-.06.68l-.334 2.083 2.767-.415-.393 2.266-2.817.432-.236 1.59 2.797-.431-.413 2.235-2.737.426-.886 5.441c-.013.059-.013.195-.013.396 0 1.449.936 2.247 2.818 2.389 1.845.136 3.98-1.017 6.396-3.454l9.53-13.436c2.137-3.005 4.437-4.507 6.907-4.507.649 0 1.3.112 1.93.338 1.918.692 2.883 1.744 2.883 3.17 0 .313-.048.644-.145.987-1.348-1.567-2.762-2.348-4.243-2.348-1.96 0-3.878 1.367-5.748 4.105L31.785 37.82c-2.902 3.477-5.827 5.228-8.771 5.246-1.53.011-2.853-.408-3.976-1.248-1.214-.923-1.821-2.112-1.821-3.56v-.22c.012-.1.019-.17.019-.212 0-.804.26-2.448.776-4.932l-2.027.301z"
   id="path7" />
        <path
   id="1"
   class="fil0"
   d="M83.806 24c3.856 3.2 5.834 7.204 5.937 12.018.085 4.216-2.622 6.594-8.122 7.125-3.283-.094-6.276-1.335-8.976-3.73-2.713 2.49-5.876 3.69-9.487 3.595-4.705-.61-7.18-2.88-7.424-6.819.243-4.454 2.222-8.392 5.936-11.817 3.496-3.222 7.06-4.83 10.69-4.83 2.27 0 4.327.371 6.172 1.123 1.657.68 3.418 1.791 5.274 3.335zM72.99 21.7c-3.405.266-6.689 1.862-9.845 4.784-3.307 3.052-4.898 6.222-4.783 9.503.388 3.023 2.501 4.714 6.33 5.075 3.381-.237 6.017-1.816 7.905-4.737 1.953 2.987 4.72 4.53 8.297 4.631 4.156-.533 6.215-2.141 6.16-4.814-.073-3.341-1.573-6.553-4.497-9.629-2.987-3.134-6.174-4.743-9.567-4.814Z" />
        <path
   id="12"
   class="fil0"
   d="M95.168 35.94c2.026 3.229 4.69 4.844 7.993 4.844.323 0 .638-.018.953-.048l2.847-.633 4.722-1.774v-.2l-2.106-12.68-4.182 1.159c-.747.1-1.457.153-2.12.153-4.563 0-7.263-2.4-8.107-7.202 1.838 3.27 4.474 4.903 7.914 4.903 1.524 0 3.169-.308 4.942-.924l10.353-3.595a12.862 12.862 0 0 1 2.696-.307c4 0 6.531 2.377 7.599 7.125-2.1-3.365-4.674-5.044-7.727-5.044-.723 0-1.486.1-2.275.296l-6.713 2.602 2.257 12.744 4.693-1.42c.674-.1 1.315-.153 1.93-.153 4.188 0 6.804 2.443 7.835 7.328-2.245-3.294-4.752-4.938-7.507-4.938-.147 0-.299.005-.456.017-1.827-.041-6.41 1.42-13.748 4.382h-.012c-1.239.391-2.415.586-3.531.586a8.974 8.974 0 0 1-4.627-1.265c-2.386-1.396-3.593-3.383-3.623-5.956z" />
        <path
   id="123"
   class="fil0"
   d="M134.875 19.541c1.785.443 2.676 1.218 2.676 2.33 0 .361-.096.757-.284 1.189 1.19 1.029 2.695 1.544 4.51 1.544 1.297 0 2.724-.261 4.278-.787l6.617-2.242 4.146-1.632c1.224-.224 2.348-.337 3.374-.337 4.757 0 7.385 2.455 7.872 7.357-1.754-3.372-4.316-5.057-7.684-5.057-1.269 0-2.64.255-4.115.763l-8.8 3.076c-2.187.763-4.086 1.14-5.7 1.14-1.524 0-2.793-.336-3.801-1.005.262.9.395 1.857.395 2.887 0 1.933-.462 4.104-1.378 6.511-.2.787-.304 1.49-.304 2.117 0 2.502 1.47 3.685 4.401 3.548 2.956-.136 6.1-.887 9.42-2.252h.067c3.697-2.13 6.58-3.135 8.662-3.011 5.159.32 8.139 2.898 8.928 7.73-2.562-3.531-5.615-5.293-9.154-5.293-.885 0-1.802.112-2.75.336l-7.361 3.164c-3.235.989-5.93 1.485-8.097 1.485-1.899 0-3.387-.372-4.46-1.123-1.488-1.042-2.235-2.33-2.235-3.874 0-.846.224-1.768.68-2.762 1.28-2.81 1.918-5.34 1.918-7.593s-.577-4.212-1.724-5.88c-.582-.845-.874-1.465-.874-1.868 0-.36.26-.515.777-.46z" />
        <path
   id="1234"
   class="fil0"
   d="M179.88 23.32c.085-2.407 2.24-3.714 6.458-3.933 2.866.361 4.766 1.804 5.706 4.335 1.615-1.337 3.558-2.005 5.84-2.005.75 0 1.559.077 2.42.23 3.102.557 4.657 2.538 4.657 5.939 0 .466-.02.857-.049 1.176l-.995 10.13c-.018.22-.031.391-.031.515 0 1.273.546 1.91 1.633 1.91.546 0 1.238-.177 2.07-.537-1.536 1.253-2.829 1.88-3.861 1.88-1.244 0-2.124-.904-2.646-2.714l1.36-11.776c.03-2.926-1.269-4.458-3.91-4.594-.2-.012-.4-.012-.6-.012-2.373 0-4.365.775-5.966 2.325-.384 1.341-1.318 2.222-2.805 2.655 3.127 2.56 4.686 5.18 4.686 7.853a7.3 7.3 0 0 1-.267 1.929c-1.238 2.938-3.976 4.411-8.218 4.411-.383 0-.747-.012-1.094-.03-5.68-.336-9.242-2.69-10.688-7.05 3.387 3.312 6.932 5.023 10.622 5.123 4.128-.25 6.228-1.727 6.29-4.442.017-.166.029-.33.029-.496 0-1.84-1.675-4.24-5.032-7.204 3.004-.763 4.51-2.177 4.51-4.246 0-.503-.091-1.052-.267-1.65-1.026-1.284-2.319-1.929-3.88-1.929-1.681 0-3.671.734-5.972 2.207z" />
        <path
   id="12345"
   class="fil0"
   d="M228.813 31.233c1.056-2.401 2.028-4.116 2.914-5.133 1.796-2.047 4.151-3.07 7.064-3.07 2.246 0 4.165.846 5.748 2.543 1.53 1.656 2.295 3.59 2.295 5.802 0 2.17-.795 4.063-2.391 5.677-1.603 1.645-3.514 2.467-5.731 2.467 2.513-1.515 4.17-2.917 4.984-4.211.601-.958.904-2.271.904-3.933 0-1.585-.57-3.01-1.712-4.276-1.17-1.295-2.56-1.946-4.176-1.958-3.392-.018-5.942 2.011-7.666 6.092-.698 2.223-1.833 4.11-3.405 5.666-1.771 1.744-3.738 2.62-5.905 2.62-2.1 0-3.989-.645-5.67-1.93-2.032-1.56-3.053-3.707-3.053-6.433 0-2.395.863-4.37 2.593-5.92 1.723-1.555 3.817-2.288 6.275-2.206-2.64 1.194-4.492 2.55-5.56 4.07-.812 1.152-1.22 2.507-1.22 4.056 0 1.656.571 3.116 1.712 4.382 1.245 1.39 2.842 2.081 4.783 2.081 2.956 0 5.36-2.128 7.217-6.386z" />
        <path
   id="123456"
   class="fil0"
   d="M252.26 19.494c1.554 3.222 4.273 4.83 8.17 4.83 1.038 0 2.161-.111 3.375-.342l10.039-3.673c1.347-.49 2.665-.738 3.94-.738 1.608 0 3.126.407 4.563 1.218 2.464 1.402 3.776 3.388 3.922 5.955-2.186-3.188-4.85-4.785-7.994-4.785-2.185 0-4.916.734-8.2 2.206 1.718 1.461 2.519 3.046 2.403 4.755-.255.781-.746 1.467-1.487 2.052-.897.71-1.499 1.313-1.802 1.805.17.638.783 1.495 1.85 2.566.96.964 1.44 1.816 1.44 2.561-.33 3.117-3 4.773-8.013 4.968 3.157-2.018 4.735-3.572 4.735-4.679 0-.07-.006-.141-.018-.212.042-.474-.487-1.337-1.591-2.59-1.098-1.26-1.632-2.13-1.59-2.608.037-.196.541-.787 1.524-1.775.977-.988 1.535-1.963 1.675-2.921-.14-1.385-.911-2.295-2.313-2.726-1.984.975-4.115 1.46-6.385 1.46-5.306-.864-8.055-3.306-8.243-7.327z" />
        
        <path
   id="12345678"
   class="fil0"
   d="M44.251 100.354c1.98-2.047 2.957-4.17 2.939-6.37-.043-3.962-1.166-7.25-3.369-9.876-2.27-2.69-5.396-4.3-9.372-4.826-.988.78-1.487 1.514-1.487 2.188 0 .467.492 1.195 1.481 2.183.984.993 1.474 1.739 1.474 2.229 0 .403-.454 1.018-1.358 1.852-.905.834-1.36 1.466-1.36 1.898 0 .733.529 1.532 1.585 2.407.613.502.915 1.04.915 1.603 0 1.253-1.553 2.743-4.655 4.458 1.195-1.42 1.79-2.649 1.79-3.683 0-.846-.388-1.62-1.17-2.33-.93-.852-1.396-1.663-1.396-2.426 0-.473.411-1.148 1.237-2.035.82-.88 1.233-1.477 1.233-1.791 0-.544-.408-1.04-1.22-1.497-.771-.42-1.153-1.034-1.153-1.845 0-.692.29-1.762.867-3.211-3.873.586-6.948 2.295-9.226 5.121-2.198 2.74-3.295 6.045-3.295 9.92 0 2.375 1.013 4.387 3.041 6.031-3.71-.142-5.628-2.324-5.767-6.541.425-5.121 2.015-9.107 4.784-11.959 2.931-3.033 6.986-4.547 12.157-4.547 5.165 0 9.269 1.508 12.321 4.518 3.047 3.016 4.553 7.044 4.51 12.083-.012 1.602-.455 2.998-1.33 4.18-1.013 1.379-2.403 2.13-4.176 2.266z" />
        <path
   id="123456789"
   class="fil0"
   d="M57.09 76.898c-1.421.515-2.167 1.225-2.229 2.118-.03.413.11.751.427 1.011.32.26.685.39 1.11.39.789 0 1.978-.04 3.562-.13 1.585-.089 2.767-.13 3.563-.13 2.064 0 3.928.61 5.585 1.822 1.784 1.307 2.694 2.939 2.736 4.902l5.087.621c.127-1.058.698-1.957 1.706-2.684.965-.693 2.009-1.035 3.138-1.035 1.298 0 2.458.484 3.471 1.448 1.02.97 1.53 2.082 1.53 3.348 0 1.36-.449 2.52-1.348 3.483-.892.958-2.033 1.48-3.417 1.55 1.118-.917 1.863-1.828 2.228-2.733.255-.614.382-1.43.382-2.454 0-.561-.249-1.124-.747-1.68-.564-.626-1.213-.94-1.942-.94-1.08 0-1.874.409-2.392 1.219-.339.525-.679 1.507-1.025 2.944l-6.348-.692c0 2.112-.886 3.951-2.653 5.53-1.767 1.58-3.732 2.372-5.907 2.372-.273 0-2.833-.118-7.671-.355-.845.225-1.269.615-1.269 1.17-.011.882.814 1.734 2.471 2.544-2.786 0-4.182-.964-4.194-2.897-.012-1.03.248-1.8.777-2.301.527-.503 1.316-.751 2.373-.74.23 0 1.615.071 4.158.219 1.286.07 2.403.106 3.355.106 1.663 0 3.12-.639 4.366-1.916 1.213-1.266 1.82-2.714 1.82-4.352 0-1.77-.6-3.217-1.802-4.342-1.209-1.129-2.72-1.691-4.547-1.691-3.356 0-5.705.035-7.046.112-2.313-.307-3.466-1.342-3.454-3.104.012-1.863 1.068-2.792 3.162-2.792.31 0 .637.018.984.06z" />
        <path
   id="12345678910"
   class="fil0"
   d="M89.945 82.15c.17-1.697 1.445-2.63 3.836-2.81 1.56.095 2.343.793 2.343 2.1 0 .225-.025.461-.067.71l-1.918 11.201c-.2.55-.298 1.26-.298 2.124 0 1.892 1.148 2.838 3.437 2.838 1.814 0 3.841-1.324 6.082-3.98 1.503-1.78 2.9-3.862 4.175-6.257l-2.028-1.14.413-2.49 3.071 1.732c3.57-6.11 6.957-9.178 10.167-9.197 1.53-.012 2.72.414 3.564 1.272.843.857 1.28 2.04 1.317 3.542-.615-.905-1.317-1.532-2.106-1.868-.693-.29-1.627-.432-2.823-.432-1.997 0-4.637 2.644-7.934 7.93l3.218 1.786-.431 2.502-4.05-2.27-2.615 3.902c-3.272 4.885-6.762 7.316-10.464 7.298-3.78-.018-5.67-1.703-5.67-5.044 0-.604.061-1.236.178-1.892l2.039-11.556c.042-.238.066-.427.066-.557 0-.568-.223-.851-.68-.851-.57 0-1.511.467-2.822 1.408z" />
        <path
   id="1234567891011"
   class="fil0"
   d="M127.2 82.115c.601-1.923 1.978-2.88 4.128-2.88 1.159.153 1.742.993 1.742 2.513 0 .45-.042.905-.127 1.355L130.89 94.15c-.213.721-.321 1.348-.321 1.881 0 1.525.855 2.288 2.566 2.288.134 0 .285.006.443.018 2.44.07 4.212-1.165 5.325-3.708l5.62-12.775c.824-2.95 3.083-4.57 6.773-4.86 4.855.502 7.284 2.376 7.284 5.617 0 1.982-1.524 3.395-4.57 4.229 4.957 1.171 7.38 3.401 7.264 6.695-.157 4.323-3.69 6.618-10.591 6.884l-.807.03c-2.312.094-4.043-.32-5.178-1.237-1.14-.917-1.663-2.264-1.572-4.044 1.08 2.3 3.564 3.53 7.459 3.707 4.935-.307 7.485-2.088 7.668-5.34.145-2.81-2.411-5.01-7.668-6.6 3.557-1.39 5.373-2.963 5.445-4.725-.2-2.212-1.778-3.353-4.734-3.424-1.882-.042-3.363 1.223-4.45 3.79l-5.839 13.857c-1.11 2.643-3.562 3.986-7.363 4.015-3.44.03-5.165-1.272-5.165-3.91 0-.454.037-.904.117-1.347l1.833-10.9c.26-.881.394-1.591.394-2.123 0-.81-.303-1.219-.917-1.219-.601 0-1.506.391-2.707 1.166z" />
        <path
   id="123456789101112"
   class="fil0"
   d="M165.968 76.994c-.218.928-.328 1.762-.328 2.513 0 2.123.904 3.548 2.707 4.294 1.1.448 2.173.68 3.229.68 1.173 0 2.337-.297 3.496-.881l10.296-5.2c2.141-1.081 4.102-1.62 5.874-1.62 2.1 0 3.903.763 5.403 2.283.903.763 1.402 1.97 1.487 3.625.085 1.656-.51 2.999-1.773 4.028.412-1.041.619-1.981.619-2.82 0-1.45-.552-2.591-1.663-3.413-1.013-.751-2.288-1.125-3.817-1.125-1.11 0-2.361.19-3.753.574l-9.377 4.886c-4.224 2.2-6.572 4.826-7.046 7.872-.054.336-.08.702-.08 1.093 0 2.839 1.876 5.098 5.622 6.772-4.158.153-6.756-1.426-7.806-4.738a8.86 8.86 0 0 1-.425-2.684c0-2.284.978-4.424 2.925-6.417-4.655-.036-7.023-1.627-7.107-4.785-.042-1.71.467-3.353 1.517-4.937z" />
        <path
   id="12345678910111212"
   class="fil0"
   d="M201.305 81.92c.34-1.934 1.694-2.904 4.074-2.904.327 0 .679.018 1.056.047.88.562 1.315 1.373 1.315 2.42 0 .567-.12 1.193-.363 1.885l-1.645 10.415c-.079.46-.115.887-.115 1.277 0 1.668.831 2.645 2.488 2.922.431.071.893.106 1.39.106 1.87 0 4-.568 6.397-1.697a20.931 20.931 0 0 0 6.725-4.985c2.217-2.455 3.328-4.915 3.328-7.375 0-3.17-1.646-4.826-4.942-4.968-1.748-.07-3.138.568-4.158 1.928.128-2.264 1.658-3.607 4.59-4.028 4.727 0 7.289 2.206 7.677 6.618-.315 4.714-2.42 8.647-6.319 11.805-3.513 2.85-7.817 4.589-12.903 5.216-4.79-.071-7.186-1.863-7.186-5.37 0-.444.048-.923.145-1.449l1.93-10.68c.188-.687.285-1.249.285-1.68 0-.698-.254-1.046-.758-1.046-.625 0-1.627.513-3.011 1.542z" />
        <path
   id="1234567891011121400"
   class="fil0"
   d="M232.291 82.038c.17-1.952 1.645-2.869 4.432-2.744.897.124 1.413.822 1.553 2.1l-.79 13.028c-.145 2.431.977 3.72 3.37 3.873 2.185-.142 3.945-1.247 5.274-3.312l9.615-14.962c1.287-2.004 3.222-3.003 5.808-2.992 2.829.372 4.389 2.005 4.687 4.902-.59 3.1-2.502 4.56-5.731 4.383 2.36-1.988 3.544-3.596 3.544-4.826 0-.218-.03-.415-.097-.586-.485-1.336-1.425-1.986-2.834-1.945-1.687.053-2.888.987-3.605 2.809l-9.25 14.389c-1.226 2.673-3.685 4.17-7.375 4.488-3.75-.49-5.681-2.23-5.797-5.216l.76-13.389c.054-.916-.231-1.372-.857-1.372-.619 0-1.524.456-2.707 1.372z" />
        <path
   id="123456789101112130000"
   class="fil0"
   d="M269.408 77.03c1.688 2.187 3.557 3.671 5.602 4.452 1.051.402 2.204.604 3.472.604 1.203 0 2.508-.185 3.909-.557l6.713-2.963c1.984-.87 3.892-1.306 5.718-1.306 1.403 0 2.75.254 4.037.757 2.852 1.117 4.37 3.347 4.558 6.677-1.591-2.567-3.466-4.146-5.615-4.732a10.897 10.897 0 0 0-2.853-.402 8.924 8.924 0 0 0-3.623.763l-7.478 3.246c-1.657.716-3.29 1.077-4.892 1.077-1.796 0-3.508-.432-5.147-1.295-2.84-1.503-4.303-3.608-4.401-6.322zm0 17.599c1.342 2.14 2.489 3.211 3.436 3.211.632 0 1.177-.461 1.632-1.39 1.317-4.275 2.701-6.434 4.146-6.464 1.086-.03 2.203.663 3.345 2.082.485.597 1.34 1.91 2.58 3.951.867 1.424 1.505 2.14 1.917 2.14.42 0 .965-.716 1.627-2.14 1.001-2.153 1.669-3.484 1.996-3.998.93-1.461 1.925-2.218 2.993-2.283 1.512.183 2.931 2.342 4.261 6.47.515 1.088 1.153 1.632 1.911 1.632 1.07 0 2.368-1.07 3.898-3.211 0 2.826-1.311 4.79-3.94 5.878-1.354-.136-2.416-.822-3.187-2.07-.302-.49-.789-1.668-1.455-3.53-.487-1.36-1.02-2.158-1.597-2.408-.667.29-1.245 1.148-1.742 2.579-.686 1.964-1.166 3.164-1.427 3.596-.746 1.224-1.802 1.833-3.15 1.833-1.414 0-2.628-.574-3.641-1.727-.475-.538-1.19-1.685-2.138-3.441-.763-1.396-1.455-2.254-2.093-2.56-.547.294-1.08 1.07-1.597 2.31-.729 1.74-1.225 2.828-1.487 3.26-.74 1.17-1.693 1.893-2.87 2.158-2.09-.195-3.23-2.153-3.418-5.878z" />
        <path
   id="1.2345678910111212e+22"
   class="fil0"
   d="M322.026 82.399c0-1.088-.321-1.97-.965-2.644-.644-.674-1.524-1.01-2.628-1.01-2.064 0-3.952.72-5.676 2.169l-.091-.06c.243-1.122.893-2.039 1.949-2.749.978-.668 2.082-.999 3.308-.999 1.572 0 2.986.431 4.242 1.295 1.402.97 2.106 2.188 2.106 3.655 0 1.153-.224 2.034-.667 2.637-.157.219-.856.882-2.107 1.993v.077c2.81 2.218 4.213 4.655 4.213 7.298 0 2.135-.856 3.78-2.568 4.92-1.486.988-3.374 1.479-5.662 1.479-5.396 0-9.026-2.313-10.896-6.942l.031-.078c3.357 3.549 6.901 5.323 10.64 5.323 1.444 0 2.714-.391 3.8-1.172 1.213-.875 1.82-1.992 1.82-3.365 0-1.418-.381-2.826-1.14-4.234-.759-1.4-1.742-2.478-2.957-3.23 2.167-2.045 3.248-3.5 3.248-4.363z" />
        
    <path
   class="fil0"
   d="m 292.19849,44.784313 0.304,-2.271 2.119,-0.313 0.272,-1.585 -2.094,0.325 0.383,-2.282 2.087,-0.326 0.492,-2.667 c 0.012,-0.06 0.018,-0.148 0.018,-0.26 0,-0.58 -0.333,-0.863 -0.994,-0.863 -0.711,0 -1.549,0.383 -2.508,1.152 0.182,-1.2 0.965,-2.028 2.361,-2.484 0.418,-0.047 0.808,-0.076 1.153,-0.076 1.73,0 2.598,0.686 2.598,2.051 0,0.19 -0.018,0.415 -0.06,0.68 l -0.334,2.083 2.767,-0.415 -0.393,2.266 -2.817,0.432 -0.236,1.59 2.797,-0.431 -0.413,2.235 -2.737,0.426 -0.886,5.441 c -0.013,0.059 -0.013,0.195 -0.013,0.396 0,1.449 0.936,2.247 2.818,2.389 1.845,0.136 3.98,-1.017 6.396,-3.454 l 9.53,-13.436 c 2.137,-3.005 4.437,-4.507 6.907,-4.507 0.649,0 1.3,0.112 1.93,0.338 1.918,0.692 2.883,1.744 2.883,3.17 0,0.313 -0.048,0.644 -0.145,0.987 -1.348,-1.567 -2.762,-2.348 -4.243,-2.348 -1.96,0 -3.878,1.367 -5.748,4.105 l -8.394,12.276 c -2.902,3.477 -5.827,5.228 -8.771,5.246 -1.53,0.011 -2.853,-0.408 -3.976,-1.248 -1.214,-0.923 -1.821,-2.112 -1.821,-3.56 v -0.22 c 0.012,-0.1 0.019,-0.17 0.019,-0.212 0,-0.804 0.26,-2.448 0.776,-4.932 l -2.027,0.301 z"
   id="path7-3"
   style="clip-rule:evenodd;fill:#1f1a17;fill-rule:nonzero;image-rendering:optimizeQuality;shape-rendering:geometricPrecision;text-rendering:geometricPrecision" /></g>
</svg>
