<svg width="35" height="46" viewBox="0 0 9.26 12.171" xmlns="http://www.w3.org/2000/svg">
    <path class="fil0" d="M7.674 4.232c1.02.847 1.543 1.906 1.57 3.18.023 1.116-.693 1.745-2.148 1.885-.869-.025-1.66-.353-2.375-.987-.718.659-1.555.976-2.51.951C.966 9.101.31 8.5.246 7.457c.065-1.178.588-2.22 1.571-3.126.925-.853 1.868-1.278 2.828-1.278.6 0 1.145.098 1.633.297.439.18.905.474 1.396.882zm-2.862-.608c-.901.07-1.77.492-2.605 1.266C1.332 5.697.911 6.536.942 7.404c.102.8.662 1.247 1.675 1.343.894-.063 1.592-.48 2.09-1.254.518.79 1.25 1.199 2.196 1.226 1.1-.141 1.645-.567 1.63-1.274-.02-.884-.416-1.734-1.19-2.548-.79-.829-1.633-1.255-2.531-1.273z" style="clip-rule:evenodd;fill:#1f1a17;fill-rule:nonzero;stroke-width:.264583;image-rendering:optimizeQuality;shape-rendering:geometricPrecision;text-rendering:geometricPrecision"/>
    <path style="fill:none;stroke:#1f1a17;stroke-width:.529167;stroke-linecap:round;stroke-linejoin:miter;stroke-miterlimit:4;stroke-dasharray:none;stroke-opacity:1" d="m3.746 7.316 1.756 1.756M5.502 7.412 3.746 9.17" transform="matrix(.78547 0 0 .78547 1.113 4.723)"/>
</svg>
