<?xml version="1.0" encoding="UTF-8" standalone="no"?>
<!-- Created with Inkscape (http://www.inkscape.org/) -->

<svg
   width="35"
   height="46"
   viewBox="0 0 9.2604167 12.170833"
   version="1.1"
   id="svg6752"
   sodipodi:docname="b.svg"
   inkscape:version="1.1.2 (0a00cf5339, 2022-02-04, custom)"
   xmlns:inkscape="http://www.inkscape.org/namespaces/inkscape"
   xmlns:sodipodi="http://sodipodi.sourceforge.net/DTD/sodipodi-0.dtd"
   xmlns="http://www.w3.org/2000/svg"
   xmlns:svg="http://www.w3.org/2000/svg">
  <sodipodi:namedview
     id="namedview2129"
     pagecolor="#505050"
     bordercolor="#eeeeee"
     borderopacity="1"
     inkscape:pageshadow="0"
     inkscape:pageopacity="0"
     inkscape:pagecheckerboard="0"
     showgrid="false"
     inkscape:zoom="5.9722222"
     inkscape:cx="14.902326"
     inkscape:cy="20.093023"
     inkscape:window-width="1296"
     inkscape:window-height="655"
     inkscape:window-x="0"
     inkscape:window-y="0"
     inkscape:window-maximized="0"
     inkscape:current-layer="layer1" />
  <defs
     id="defs6749" />
  <g
     id="layer1">
    <path
       id="1"
       class="fil0"
       d="m 7.6738569,4.2324256 c 1.020004,0.846563 1.543442,1.905942 1.570628,3.179683 0.0225,1.115629 -0.693751,1.7446906 -2.148755,1.8853173 -0.868752,-0.025 -1.660629,-0.3534387 -2.375006,-0.9871893 -0.717815,0.6587516 -1.554692,0.9762516 -2.510007,0.9512506 -1.24500197,-0.16125 -1.90000497,-0.7618756 -1.96437997,-1.8040666 0.06438,-1.178441 0.587814,-2.220317 1.57062697,-3.126581 0.925002,-0.852501 1.867818,-1.2781279 2.828131,-1.2781279 0.600626,0 1.145003,0.098438 1.63313,0.2971879 0.438439,0.180001 0.904378,0.474065 1.39563,0.882502 z m -2.861892,-0.608751 c -0.90094,0.07062 -1.769692,0.492813 -2.604693,1.265941 -0.875001,0.807503 -1.29593997,1.646254 -1.26562897,2.514381 0.10281297,0.79969 0.66187597,1.24719 1.67500297,1.342816 0.894376,-0.06281 1.591879,-0.480627 2.091256,-1.25344 0.516877,0.790313 1.249066,1.198441 2.195317,1.225314 1.09969,-0.140937 1.64438,-0.566562 1.630002,-1.273751 -0.01938,-0.884066 -0.41625,-1.733754 -1.190003,-2.547507 -0.790313,-0.829376 -1.633442,-1.255003 -2.531255,-1.273751 z"
       style="clip-rule:evenodd;fill:#1f1a17;fill-rule:nonzero;stroke-width:0.264583;image-rendering:optimizeQuality;shape-rendering:geometricPrecision;text-rendering:geometricPrecision" />
    <g
       id="g20709"
       transform="matrix(0.78546811,0,0,0.78546811,1.113495,4.7225912)">
      <path
         style="fill:none;stroke:#1f1a17;stroke-width:0.529167;stroke-linecap:round;stroke-linejoin:miter;stroke-miterlimit:4;stroke-dasharray:none;stroke-opacity:1"
         d="M 3.7459906,7.3158702 5.5024381,9.0723177"
         id="path17647" />
      <path
         style="fill:none;stroke:#1f1a17;stroke-width:0.529167;stroke-linecap:round;stroke-linejoin:miter;stroke-miterlimit:4;stroke-dasharray:none;stroke-opacity:1"
         d="M 5.5024381,7.412498 3.7459906,9.1689455"
         id="path17647-3" />
    </g>
  </g>
</svg>
