<?xml version="1.0" encoding="UTF-8" standalone="no"?>
<!-- Created with Inkscape (http://www.inkscape.org/) -->

<svg
   width="35"
   height="46"
   viewBox="0 0 9.2604167 12.170833"
   version="1.1"
   id="svg6752"
   sodipodi:docname="be.svg"
   inkscape:version="1.1.2 (0a00cf5339, 2022-02-04, custom)"
   xmlns:inkscape="http://www.inkscape.org/namespaces/inkscape"
   xmlns:sodipodi="http://sodipodi.sourceforge.net/DTD/sodipodi-0.dtd"
   xmlns="http://www.w3.org/2000/svg"
   xmlns:svg="http://www.w3.org/2000/svg">
  <sodipodi:namedview
     id="namedview2062"
     pagecolor="#505050"
     bordercolor="#eeeeee"
     borderopacity="1"
     inkscape:pageshadow="0"
     inkscape:pageopacity="0"
     inkscape:pagecheckerboard="0"
     showgrid="false"
     inkscape:zoom="5.9722222"
     inkscape:cx="-1.0046512"
     inkscape:cy="13.897674"
     inkscape:window-width="1296"
     inkscape:window-height="655"
     inkscape:window-x="0"
     inkscape:window-y="0"
     inkscape:window-maximized="0"
     inkscape:current-layer="svg6752" />
  <defs
     id="defs6749" />
  <g
     id="layer1">
    <path
       id="1"
       class="fil0"
       d="m 7.5502017,4.3933882 c 1.020004,0.846563 1.543442,1.905942 1.570628,3.179683 0.0225,1.115629 -0.693751,1.744691 -2.148755,1.885317 -0.868752,-0.025 -1.660629,-0.353438 -2.375006,-0.987189 -0.717815,0.658752 -1.554692,0.976252 -2.510007,0.951251 -1.24500201,-0.16125 -1.90000501,-0.761876 -1.96438001,-1.804067 0.06438,-1.178441 0.587814,-2.220317 1.57062701,-3.126581 0.925002,-0.8525009 1.867818,-1.2781278 2.828131,-1.2781278 0.600626,0 1.145003,0.098438 1.63313,0.2971879 0.438439,0.180001 0.904378,0.474065 1.39563,0.8825019 z M 4.6883097,3.7846373 c -0.90094,0.07062 -1.769692,0.4928129 -2.604693,1.2659409 -0.875001,0.807503 -1.29594001,1.646254 -1.26562901,2.514381 0.102813,0.79969 0.66187601,1.24719 1.67500301,1.342816 0.894376,-0.06281 1.591879,-0.480627 2.091256,-1.25344 0.516877,0.790313 1.249066,1.198441 2.195317,1.225314 1.09969,-0.140937 1.64438,-0.566562 1.630002,-1.273751 -0.01938,-0.884066 -0.41625,-1.733754 -1.190003,-2.547507 -0.790313,-0.829376 -1.633442,-1.2550029 -2.531255,-1.2737509 z"
       style="clip-rule:evenodd;fill:#1f1a17;fill-rule:nonzero;stroke-width:0.264583;image-rendering:optimizeQuality;shape-rendering:geometricPrecision;text-rendering:geometricPrecision" />
    <circle
       style="clip-rule:evenodd;fill:none;fill-rule:evenodd;stroke:#1f1a17;stroke-width:0.529167;stroke-linecap:round;stroke-opacity:1;image-rendering:optimizeQuality;shape-rendering:geometricPrecision;text-rendering:geometricPrecision"
       id="path1182"
       cx="4.6220121"
       cy="1.2585062"
       r="0.94201261" />
  </g>
</svg>
