<svg width="35" height="46" viewBox="0 0 9.26 12.171" xmlns="http://www.w3.org/2000/svg">
    <g transform="translate(-.034 2.624)">
        <path class="fil0" d="M7.55 1.232c1.02.846 1.544 1.906 1.57 3.18.023 1.115-.693 1.744-2.148 1.885-.869-.025-1.66-.354-2.375-.988-.718.66-1.555.977-2.51.952C.842 6.099.187 5.499.123 4.457c.064-1.179.587-2.22 1.57-3.127C2.618.478 3.561.052 4.521.052c.601 0 1.145.098 1.634.297.438.18.904.474 1.395.883zM4.688.622c-.9.071-1.77.494-2.604 1.267C1.209 2.696.788 3.535.818 4.403c.103.8.662 1.247 1.675 1.343.894-.063 1.592-.48 2.091-1.253.517.79 1.25 1.198 2.196 1.225 1.1-.141 1.644-.567 1.63-1.274-.02-.884-.417-1.734-1.19-2.547C6.43 1.067 5.586.642 4.688.623z" style="clip-rule:evenodd;fill:#1f1a17;fill-rule:nonzero;stroke-width:.264583;image-rendering:optimizeQuality;shape-rendering:geometricPrecision;text-rendering:geometricPrecision"/>
        <circle style="clip-rule:evenodd;fill:#1f1a17;fill-opacity:1;fill-rule:evenodd;stroke:#1f1a17;stroke-width:.529167;stroke-linecap:round;stroke-opacity:1;image-rendering:optimizeQuality;shape-rendering:geometricPrecision;text-rendering:geometricPrecision" cx="4.622" cy="-8.252" transform="scale(1 -1)" r=".942"/>
    </g>
</svg>
