<svg width="35" height="46" viewBox="0 0 9.26 12.171" xmlns="http://www.w3.org/2000/svg">
    <path class="fil0" d="M1.754 3.647c.023-.637.593-.983 1.709-1.04.758.095 1.26.477 1.51 1.146.427-.353.94-.53 1.545-.53.198 0 .412.02.64.06.82.148 1.232.672 1.232 1.572 0 .123-.005.227-.013.311l-.263 2.68a1.91 1.91 0 0 0-.008.137c0 .336.144.505.432.505.144 0 .327-.047.547-.142-.406.331-.748.497-1.021.497-.33 0-.562-.239-.7-.718l.36-3.115c.008-.775-.336-1.18-1.035-1.216-.053-.003-.106-.003-.159-.003-.627 0-1.155.205-1.578.615-.102.355-.349.588-.742.702.827.678 1.24 1.371 1.24 2.078 0 .17-.024.338-.071.51-.328.778-1.052 1.168-2.175 1.168a5.64 5.64 0 0 1-.289-.008C1.412 8.766.47 8.144.087 6.99c.896.876 1.834 1.328 2.81 1.355C3.99 8.28 4.546 7.889 4.563 7.17a1.23 1.23 0 0 0 .007-.132c0-.487-.443-1.122-1.33-1.906.794-.202 1.192-.576 1.192-1.123 0-.133-.024-.279-.07-.437-.272-.34-.614-.51-1.027-.51-.445 0-.971.194-1.58.584z" style="clip-rule:evenodd;fill:#1f1a17;fill-rule:nonzero;stroke-width:.264583;image-rendering:optimizeQuality;shape-rendering:geometricPrecision;text-rendering:geometricPrecision"/>
    <path style="fill:none;stroke:#1f1a17;stroke-width:.529167;stroke-linecap:round;stroke-linejoin:miter;stroke-miterlimit:4;stroke-dasharray:none;stroke-opacity:1" d="m3.746 7.316 1.756 1.756M5.502 7.412 3.746 9.17" transform="matrix(.78547 0 0 .78547 1.075 4.411)"/>
</svg>
