<?xml version="1.0" encoding="UTF-8" standalone="no"?>
<!-- Created with Inkscape (http://www.inkscape.org/) -->

<svg
   width="35"
   height="46"
   viewBox="0 0 9.2604165 12.170834"
   version="1.1"
   id="svg10156"
   xmlns="http://www.w3.org/2000/svg"
   xmlns:svg="http://www.w3.org/2000/svg">
  <defs
     id="defs10153" />
  <g
     id="layer1">
    <path
       id="1234"
       class="fil0"
       d="m 1.7540611,3.6467969 c 0.02249,-0.6368759 0.5928146,-0.9825011 1.7087536,-1.0406274 0.758126,0.095625 1.26094,0.4775014 1.509691,1.1471909 0.427188,-0.3537505 0.941252,-0.5306271 1.545003,-0.5306271 0.198749,0 0.412501,0.020312 0.640627,0.060937 0.820627,0.147188 1.231879,0.6715628 1.231879,1.5712546 0,0.1234379 -0.005,0.2268754 -0.01281,0.3112505 l -0.263437,2.6803093 c -0.0047,0.05813 -0.0081,0.103437 -0.0081,0.13625 0,0.3365629 0.144375,0.5053149 0.432189,0.5053149 0.144375,0 0.327501,-0.04688 0.547502,-0.142188 -0.406252,0.331561 -0.74844,0.4975 -1.021564,0.4975 -0.329062,0 -0.561877,-0.239376 -0.700003,-0.718126 l 0.359669,-3.1156272 c 0.00812,-0.7743772 -0.335627,-1.1796897 -1.034378,-1.2156281 -0.05281,-0.00312 -0.105624,-0.00312 -0.15875,-0.00312 -0.627814,0 -1.155002,0.2050005 -1.578441,0.6150001 -0.101563,0.3550021 -0.34875,0.5881265 -0.742188,0.7025005 0.827191,0.6775027 1.23969,1.370629 1.23969,2.0778179 0,0.1690629 -0.02376,0.3381269 -0.07063,0.5103125 -0.327501,0.7775023 -1.051877,1.1671913 -2.17438,1.1671913 -0.101248,0 -0.197498,-0.0031 -0.289375,-0.0078 -1.5028144,-0.08906 -2.44531848,-0.711878 -2.82781328,-1.8653184 0.8962522,0.8762525 1.83406728,1.3287534 2.81032428,1.3553154 1.09219,-0.06594 1.647817,-0.4568779 1.664066,-1.1753167 0.0047,-0.04375 0.0078,-0.0875 0.0078,-0.1312503 0,-0.4868757 -0.443127,-1.1218783 -1.331254,-1.9059419 0.794689,-0.2018755 1.193128,-0.5759397 1.193128,-1.1234393 0,-0.1331254 -0.02405,-0.2784369 -0.07062,-0.4365625 -0.271251,-0.339688 -0.613439,-0.5103125 -1.026253,-0.5103125 -0.445,0 -0.971566,0.1940629 -1.5803164,0.5837502 z"
       style="clip-rule:evenodd;fill:#1f1a17;fill-rule:nonzero;stroke-width:0.264583;image-rendering:optimizeQuality;shape-rendering:geometricPrecision;text-rendering:geometricPrecision" />
    <g
       id="g20709"
       transform="matrix(0.78546811,0,0,0.78546811,1.074959,4.4111008)">
      <path
         style="fill:none;stroke:#1f1a17;stroke-width:0.529167;stroke-linecap:round;stroke-linejoin:miter;stroke-miterlimit:4;stroke-dasharray:none;stroke-opacity:1"
         d="M 3.7459906,7.3158702 5.5024381,9.0723177"
         id="path17647" />
      <path
         style="fill:none;stroke:#1f1a17;stroke-width:0.529167;stroke-linecap:round;stroke-linejoin:miter;stroke-miterlimit:4;stroke-dasharray:none;stroke-opacity:1"
         d="M 5.5024381,7.412498 3.7459906,9.1689455"
         id="path17647-3" />
    </g>
  </g>
</svg>
