<svg width="35" height="46" viewBox="0 0 9.26 12.171" xmlns="http://www.w3.org/2000/svg">
    <path class="fil0" d="M1.754 4.391c.023-.636.593-.982 1.709-1.04.758.095 1.26.477 1.51 1.147.427-.354.94-.53 1.545-.53.198 0 .412.02.64.06.82.147 1.232.672 1.232 1.572 0 .123-.005.226-.013.31l-.263 2.681a1.91 1.91 0 0 0-.008.136c0 .337.144.506.432.506.144 0 .327-.047.547-.143-.406.332-.748.498-1.021.498-.33 0-.562-.24-.7-.718l.36-3.116c.008-.774-.336-1.18-1.035-1.215-.053-.004-.106-.004-.159-.004-.627 0-1.155.205-1.578.615-.102.355-.349.589-.742.703.827.677 1.24 1.37 1.24 2.078 0 .169-.024.338-.071.51-.328.778-1.052 1.167-2.175 1.167a5.64 5.64 0 0 1-.289-.008C1.412 9.511.47 8.89.087 7.735c.896.876 1.834 1.329 2.81 1.355 1.093-.065 1.648-.456 1.665-1.175a1.23 1.23 0 0 0 .007-.131c0-.487-.443-1.122-1.33-1.906.794-.202 1.192-.576 1.192-1.123 0-.134-.024-.279-.07-.437-.272-.34-.614-.51-1.027-.51-.445 0-.971.194-1.58.583z" style="clip-rule:evenodd;fill:#1f1a17;fill-rule:nonzero;stroke-width:.264583;image-rendering:optimizeQuality;shape-rendering:geometricPrecision;text-rendering:geometricPrecision"/>
    <circle style="clip-rule:evenodd;fill:none;fill-rule:evenodd;stroke:#1f1a17;stroke-width:.529167;stroke-linecap:round;stroke-opacity:1;image-rendering:optimizeQuality;shape-rendering:geometricPrecision;text-rendering:geometricPrecision;fill-opacity:1" cx="4.707" cy="1.412" r=".942"/>
</svg>
