<svg width="35" height="46" viewBox="0 0 9.26 12.171" xmlns="http://www.w3.org/2000/svg">
    <path class="fil0" d="M.266 7.533c.536.855 1.241 1.282 2.115 1.282.085 0 .169-.005.252-.012l.753-.168 1.25-.47v-.052l-.557-3.355-1.107.306c-.197.027-.385.041-.56.041C1.203 5.105.49 4.47.265 3.199c.487.866 1.184 1.298 2.094 1.298.403 0 .839-.082 1.308-.245l2.74-.951c.254-.055.49-.081.712-.081 1.059 0 1.728.629 2.01 1.885-.555-.89-1.236-1.335-2.044-1.335-.19 0-.393.027-.601.079l-1.777.688.598 3.372 1.241-.376c.179-.026.348-.04.51-.04 1.109 0 1.801.646 2.074 1.939-.594-.872-1.257-1.307-1.986-1.307-.04 0-.08.002-.121.005-.483-.011-1.696.375-3.638 1.16h-.003c-.327.103-.639.154-.934.154-.435 0-.843-.11-1.224-.335-.631-.369-.95-.895-.959-1.576Z" style="clip-rule:evenodd;fill:#1f1a17;fill-rule:nonzero;stroke-width:.264583;image-rendering:optimizeQuality;shape-rendering:geometricPrecision;text-rendering:geometricPrecision"/>
    <circle style="clip-rule:evenodd;fill:#1f1a17;fill-opacity:1;fill-rule:evenodd;stroke:#1f1a17;stroke-width:.529167;stroke-linecap:round;stroke-opacity:1;image-rendering:optimizeQuality;shape-rendering:geometricPrecision;text-rendering:geometricPrecision" cx="4.698" cy="10.835" r=".942"/>
</svg>
