<svg width="35" height="46" viewBox="0 0 9.26 12.171" xmlns="http://www.w3.org/2000/svg">
    <path class="fil0" d="M.152 3.03c.412.852 1.131 1.277 2.162 1.277.275 0 .572-.03.893-.09l2.656-.972c.357-.13.705-.196 1.043-.196.425 0 .827.108 1.207.323.652.37 1 .896 1.038 1.575-.579-.843-1.284-1.266-2.115-1.266-.579 0-1.301.194-2.17.584.455.387.666.806.636 1.258a1.138 1.138 0 0 1-.394.543c-.237.188-.396.348-.477.478.045.168.208.395.49.679.254.255.38.48.38.677-.086.825-.793 1.263-2.12 1.314.836-.533 1.254-.945 1.254-1.237a.345.345 0 0 0-.005-.057c.011-.125-.129-.353-.421-.685-.29-.333-.432-.563-.42-.69.009-.052.142-.208.402-.47.259-.26.407-.519.444-.772-.037-.367-.241-.608-.612-.722a3.779 3.779 0 0 1-1.69.387C.93 4.739.203 4.093.153 3.029Z" style="clip-rule:evenodd;fill:#1f1a17;fill-rule:nonzero;stroke-width:.264583;image-rendering:optimizeQuality;shape-rendering:geometricPrecision;text-rendering:geometricPrecision"/>
    <ellipse style="clip-rule:evenodd;fill:#1f1a17;fill-opacity:1;fill-rule:evenodd;stroke:#1f1a17;stroke-width:.424965;stroke-miterlimit:4;stroke-dasharray:none;stroke-opacity:1;image-rendering:optimizeQuality;shape-rendering:geometricPrecision;text-rendering:geometricPrecision" cx="4.651" cy="1.201" rx=".928" ry=".919"/>
</svg>
