<?xml version="1.0" encoding="UTF-8" standalone="no"?>
<!-- Creator: CorelDRAW -->

<svg
   xml:space="preserve"
   width="35"
   height="46"
   style="clip-rule:evenodd;fill-rule:evenodd;image-rendering:optimizeQuality;shape-rendering:geometricPrecision;text-rendering:geometricPrecision"
   viewBox="0 0 35.000001 45.999999"
   version="1.1"
   id="svg26"
   sodipodi:docname="m.svg"
   inkscape:version="1.1.2 (0a00cf5339, 2022-02-04, custom)"
   xmlns:inkscape="http://www.inkscape.org/namespaces/inkscape"
   xmlns:sodipodi="http://sodipodi.sourceforge.net/DTD/sodipodi-0.dtd"
   xmlns="http://www.w3.org/2000/svg"
   xmlns:svg="http://www.w3.org/2000/svg"><sodipodi:namedview
   id="namedview28"
   pagecolor="#ffffff"
   bordercolor="#666666"
   borderopacity="1.0"
   inkscape:pageshadow="2"
   inkscape:pageopacity="0.0"
   inkscape:pagecheckerboard="0"
   showgrid="false"
   width="35px"
   fit-margin-top="0"
   fit-margin-left="0"
   fit-margin-right="0"
   fit-margin-bottom="0"
   inkscape:zoom="8.8346753"
   inkscape:cx="12.79051"
   inkscape:cy="33.843915"
   inkscape:window-width="1296"
   inkscape:window-height="655"
   inkscape:window-x="246"
   inkscape:window-y="12"
   inkscape:window-maximized="0"
   inkscape:current-layer="Layer_x0020_1" />
 <defs
   id="defs4">
  <style
   type="text/css"
   id="style2">
   <![CDATA[
    .fil0 {fill:#1F1A17;fill-rule:nonzero}
   ]]>
  </style>
 </defs>
 <g
   id="Layer_x0020_1"
   inkscape:label="Layer 1"
   inkscape:groupmode="layer"
   transform="translate(-291.694,-19.493236)">
  <metadata
   id="CorelCorpID_0Corel-Layer" />
  <path
   class="fil0"
   d="m 15.9851,33.1961 0.303544,-2.27127 2.1189,-0.312993 0.272835,-1.58504 -2.0941,0.324804 0.382678,-2.2819 2.08701,-0.325985 0.492521,-2.66694 c 0.01181,-0.05905 0.01772,-0.147638 0.01772,-0.259843 0,-0.579923 -0.333072,-0.863388 -0.99449,-0.863388 -0.711025,0 -1.54843,0.383859 -2.50749,1.15276 0.18189,-1.2 0.964963,-2.02796 2.36103,-2.48386 0.418111,-0.04724 0.807876,-0.07677 1.15276,-0.07677 1.73032,0 2.59843,0.686222 2.59843,2.05158 0,0.190158 -0.0189,0.414568 -0.06024,0.680317 l -0.334253,2.08229 2.76733,-0.414568 -0.393308,2.26536 -2.81694,0.432284 -0.236221,1.59095 2.79686,-0.432284 -0.412206,2.23583 -2.7378,0.425198 -0.885829,5.44135 c -0.01299,0.05906 -0.01299,0.194882 -0.01299,0.39567 0,1.44922 0.936616,2.24764 2.81812,2.38938 1.84489,0.135827 3.98032,-1.01693 6.39568,-3.45355 l 9.53034,-13.4363 c 2.13662,-3.00473 4.43741,-4.5071 6.9071,-4.5071 0.648427,0 1.29922,0.112205 1.92993,0.337796 1.91811,0.692128 2.88308,1.74449 2.88308,3.17009 0,0.312993 -0.04842,0.643702 -0.145276,0.987404 -1.34764,-1.56733 -2.76142,-2.34804 -4.24253,-2.34804 -1.96063,0 -3.87875,1.36654 -5.74844,4.10434 l -8.39411,12.2776 c -2.90198,3.47717 -5.82639,5.22757 -8.77089,5.24529 -1.52953,0.01181 -2.85237,-0.407481 -3.9756,-1.24725 -1.21418,-0.923624 -1.82126,-2.11182 -1.82126,-3.56103 v -0.218504 c 0.01181,-0.100394 0.0189,-0.17126 0.0189,-0.212599 0,-0.804333 0.261024,-2.44843 0.775986,-4.93229 l -2.02678,0.301182 z"
   id="path7" />
  <path
   id="1"
   class="fil0"
   d="m 83.8065,24.0001 c 3.85513,3.19961 5.83348,7.20356 5.93623,12.0177 0.08504,4.21655 -2.62205,6.59411 -8.12128,7.12561 -3.28347,-0.09449 -6.27639,-1.33583 -8.9764,-3.73111 -2.713,2.48977 -5.876,3.68977 -9.48664,3.59528 -4.70552,-0.60945 -7.18112,-2.87953 -7.42443,-6.81852 0.243308,-4.45395 2.22166,-8.39175 5.93623,-11.817 3.49607,-3.22205 7.05947,-4.83072 10.689,-4.83072 2.27008,0 4.32757,0.372048 6.17246,1.12323 1.65709,0.680317 3.41812,1.79174 5.27482,3.33544 z M 72.9899,21.69931 c -3.40513,0.26693 -6.6886,1.8626 -9.84451,4.78466 -3.30709,3.05198 -4.89804,6.22206 -4.78348,9.50317 0.388584,3.02245 2.50158,4.71379 6.33072,5.07521 3.38032,-0.237402 6.01655,-1.81654 7.90396,-4.73741 1.95355,2.98701 4.72088,4.52954 8.29726,4.63111 4.15631,-0.532678 6.21498,-2.14134 6.16064,-4.81418 C 86.98126,32.80052 85.48126,29.5891 82.55684,26.5135 79.56983,23.37885 76.3832,21.77018 72.98989,21.69932 Z" />
  <path
   id="12"
   class="fil0"
   d="m 95.1675,35.9398 c 2.02678,3.22914 4.69135,4.84371 7.99372,4.84371 0.32244,0 0.6378,-0.01772 0.95315,-0.04724 l 2.84646,-0.633072 4.72206,-1.77402 V 38.12839 l -2.10591,-12.6792 -4.18229,1.15866 c -0.74646,0.100394 -1.4563,0.153544 -2.1189,0.153544 -4.563788,0 -7.263798,-2.40119 -8.108288,-7.20238 1.83898,3.27048 4.47403,4.90277 7.914588,4.90277 1.52363,0 3.1689,-0.308268 4.94174,-0.923624 l 10.3536,-3.59528 c 0.96497,-0.206693 1.85788,-0.307087 2.69528,-0.307087 4.0004,0 6.53151,2.37756 7.59923,7.12561 -2.1,-3.36497 -4.67363,-5.0445 -7.72679,-5.0445 -0.72283,0 -1.48583,0.100394 -2.27481,0.296457 l -6.7134,2.60197 2.25709,12.7441 4.69253,-1.41969 c 0.67441,-0.100394 1.31575,-0.153544 1.92993,-0.153544 4.1882,0 6.80435,2.44253 7.83545,7.32758 -2.24528,-3.2941 -4.75159,-4.9382 -7.5071,-4.9382 -0.14645,0 -0.29882,0.0059 -0.4559,0.01772 -1.82717,-0.04134 -6.40986,1.41969 -13.7481,4.3819 h -0.0118 c -1.23898,0.390946 -2.41536,0.585828 -3.5315,0.585828 -1.64528,0 -3.1878,-0.419292 -4.626386,-1.26496 -2.38583,-1.39607 -3.59292,-3.38268 -3.62363,-5.95631 z" />
  <path
   id="123"
   class="fil0"
   d="m 134.875,19.5414 c 1.78465,0.442914 2.67638,1.21772 2.67638,2.32914 0,0.361418 -0.0968,0.757088 -0.28465,1.18937 1.18937,1.02874 2.69528,1.5437 4.50946,1.5437 1.29803,0 2.72481,-0.261024 4.27914,-0.786616 l 6.61655,-2.24174 4.14568,-1.63229 c 1.22481,-0.22441 2.34804,-0.336615 3.37442,-0.336615 4.75749,0 7.38545,2.45434 7.87207,7.3571 -1.75394,-3.37206 -4.31576,-5.05749 -7.68427,-5.05749 -1.26851,0 -2.63977,0.255119 -4.11497,0.762994 l -8.80041,3.0756 c -2.18623,0.762994 -4.08544,1.14095 -5.70001,1.14095 -1.52363,0 -2.79213,-0.336615 -3.8008,-1.00512 0.26221,0.898821 0.39567,1.8567 0.39567,2.88662 0,1.93347 -0.46181,4.10434 -1.37835,6.51143 -0.1996,0.786616 -0.30354,1.48937 -0.30354,2.11654 0,2.50158 1.46929,3.68505 4.4008,3.54804 2.95631,-0.135827 6.09923,-0.88701 9.42049,-2.25237 h 0.0661 c 3.69686,-2.12953 6.57994,-3.13465 8.66222,-3.01064 5.15907,0.320079 8.139,2.89843 8.92797,7.72915 -2.56182,-3.53032 -5.61497,-5.29253 -9.15356,-5.29253 -0.88583,0 -1.80237,0.112205 -2.74961,0.336615 l -7.36183,3.16418 c -3.23505,0.988585 -5.93033,1.48465 -8.09648,1.48465 -1.89922,0 -3.38741,-0.372048 -4.46103,-1.12323 -1.48701,-1.04173 -2.23465,-2.33032 -2.23465,-3.87402 0,-0.845671 0.22441,-1.76811 0.68032,-2.76142 1.28032,-2.80985 1.91811,-5.34096 1.91811,-7.59332 0,-2.25355 -0.57756,-4.21182 -1.72441,-5.87954 -0.58229,-0.845671 -0.87402,-1.46575 -0.87402,-1.86851 0,-0.360237 0.26102,-0.514962 0.77717,-0.460631 z" />
  <path
   id="1234"
   class="fil0"
   d="m 179.88,23.3197 c 0.085,-2.40709 2.24056,-3.71339 6.45828,-3.93308 2.86536,0.361418 4.76576,1.80473 5.70592,4.33584 1.61457,-1.33701 3.55749,-2.00552 5.83938,-2.00552 0.75118,0 1.55906,0.07677 2.42127,0.230315 3.10158,0.556301 4.65592,2.53819 4.65592,5.9386 0,0.466537 -0.0189,0.857482 -0.0484,1.17638 l -0.99567,10.1303 c -0.0177,0.219686 -0.0307,0.390946 -0.0307,0.514962 0,1.27205 0.54567,1.90985 1.63347,1.90985 0.54567,0 1.2378,-0.177166 2.0693,-0.537403 -1.53544,1.25315 -2.82875,1.88032 -3.86103,1.88032 -1.2437,0 -2.12363,-0.904727 -2.64568,-2.71418 l 1.35945,-11.7756 c 0.0307,-2.92678 -1.26851,-4.45867 -3.90946,-4.5945 -0.1996,-0.01181 -0.39921,-0.01181 -0.6,-0.01181 -2.37284,0 -4.36536,0.774805 -5.96576,2.32441 -0.38386,1.34174 -1.31811,2.22284 -2.80512,2.65512 3.12639,2.56064 4.68544,5.18033 4.68544,7.85317 0,0.638978 -0.0898,1.27796 -0.26693,1.92874 -1.2378,2.93859 -3.9756,4.41143 -8.21813,4.41143 -0.38267,0 -0.74645,-0.01181 -1.0937,-0.02953 -5.67993,-0.336615 -9.24215,-2.69056 -10.6878,-7.05002 3.38741,3.31182 6.93191,5.02206 10.6217,5.12245 4.12796,-0.249213 6.22797,-1.72678 6.28938,-4.44214 0.0177,-0.165355 0.0295,-0.330709 0.0295,-0.496064 0,-1.84016 -1.67481,-4.24017 -5.03151,-7.20356 3.00355,-0.762994 4.50946,-2.17678 4.50946,-4.24607 0,-0.503151 -0.0909,-1.05236 -0.26693,-1.65 -1.0252,-1.28386 -2.31851,-1.92874 -3.87875,-1.92874 -1.68189,0 -3.67206,0.733466 -5.97285,2.2063 z" />
  <path
   id="12345"
   class="fil0"
   d="m 228.813,31.2331 c 1.05591,-2.40119 2.02796,-4.11615 2.91379,-5.13308 1.79646,-2.04686 4.15158,-3.06969 7.06419,-3.06969 2.24646,0 4.16458,0.845671 5.74844,2.54292 1.52953,1.65591 2.29489,3.58938 2.29489,5.80159 0,2.17087 -0.79488,4.063 -2.39174,5.67757 -1.60276,1.6441 -3.51379,2.46615 -5.73072,2.46615 2.51339,-1.51418 4.17048,-2.91615 4.98426,-4.21064 0.60118,-0.957876 0.90355,-2.27127 0.90355,-3.93308 0,-1.58504 -0.57048,-3.01064 -1.71143,-4.2756 -1.17048,-1.29567 -2.56064,-1.94646 -4.17639,-1.95827 -3.39213,-0.01772 -5.94213,2.01142 -7.66536,6.09214 -0.69804,2.22284 -1.83308,4.11025 -3.40514,5.66576 -1.77166,1.74449 -3.7382,2.61969 -5.90553,2.61969 -2.1,0 -3.98858,-0.644883 -5.6693,-1.92874 -2.03268,-1.56024 -3.05315,-3.70749 -3.05315,-6.43348 0,-2.39528 0.8622,-4.37127 2.59253,-5.92088 1.72323,-1.55433 3.81733,-2.2878 6.27521,-2.20512 -2.63977,1.1941 -4.49174,2.54882 -5.55946,4.06891 -0.81261,1.15276 -1.22008,2.50749 -1.22008,4.0571 0,1.65591 0.57047,3.11576 1.71142,4.3819 1.24488,1.39016 2.84173,2.08111 4.78348,2.08111 2.95512,0 5.35866,-2.12835 7.21655,-6.38624 z" />
  <path
   id="123456"
   class="fil0"
   d="m 252.26,19.4941 c 1.55433,3.22205 4.27324,4.83072 8.17089,4.83072 1.03701,0 2.16024,-0.112205 3.37442,-0.34252 l 10.0382,-3.67324 c 1.34764,-0.490159 2.66575,-0.738191 3.94017,-0.738191 1.60867,0 3.12639,0.407481 4.56379,1.21772 2.46379,1.40197 3.77599,3.38859 3.92127,5.95513 -2.18623,-3.1878 -4.84962,-4.78466 -7.99372,-4.78466 -2.18504,0 -4.91576,0.733466 -8.20041,2.2063 1.71851,1.46103 2.5193,3.04607 2.40355,4.75513 -0.25512,0.78071 -0.74646,1.46693 -1.48701,2.05158 -0.89764,0.709844 -1.49882,1.31339 -1.80237,1.80473 0.17008,0.637797 0.78307,1.49528 1.85079,2.56654 0.95906,0.963782 1.43859,1.81536 1.43859,2.56064 -0.32835,3.11694 -2.99883,4.77285 -8.01262,4.96773 3.15709,-2.01733 4.73505,-3.57166 4.73505,-4.67836 0,-0.07087 -0.006,-0.141733 -0.0177,-0.212599 0.0425,-0.473623 -0.48661,-1.33701 -1.59095,-2.59016 -1.09843,-1.26024 -1.63229,-2.12953 -1.58977,-2.60788 0.0366,-0.196063 0.54095,-0.786616 1.52363,-1.7752 0.97678,-0.987404 1.53544,-1.963 1.67481,-2.92087 -0.13937,-1.38426 -0.91063,-2.29489 -2.3126,-2.72599 -1.98426,0.975593 -4.11497,1.45985 -6.38505,1.45985 -5.30552,-0.863388 -8.05514,-3.30591 -8.24293,-7.32639 z" />
  <path
   id="1234567"
   class="fil0"
   d="m 292.0307,35.200359 c 0.51614,-2.01615 1.79646,-2.96221 3.83032,-2.8382 1.43859,0.09449 2.15434,1.04055 2.15434,2.8382 0,0.112205 -0.10866,0.810238 -0.31417,2.0941 l -0.34725,2.11654 14.5489,-1.01693 c 2.25237,-3.32363 4.04883,-5.53584 5.40237,-6.63545 1.08662,-0.88701 2.29961,-1.34174 3.64135,-1.35945 3.39922,-0.04252 5.09293,1.46575 5.09293,4.52363 -1.2437,-1.47284 -2.713,-2.21221 -4.41261,-2.21221 -2.16733,0 -4.29686,1.60276 -6.39805,4.80237 l -6.34844,9.67561 c -3.15001,4.79056 -6.48899,7.09017 -10.0264,6.9071 -1.44567,-0.07087 -2.72599,-0.633072 -3.84922,-1.67953 -1.14685,-1.07008 -1.72323,-2.30079 -1.72323,-3.68977 0,-0.141733 0.0118,-0.272835 0.0295,-0.396851 l 1.93701,-11.6681 c 0.0909,-0.574017 0.13937,-1.04646 0.13937,-1.41378 0,-0.916538 -0.27874,-1.37126 -0.83741,-1.37126 -0.54094,0 -1.37835,0.442914 -2.5193,1.32402 z m 4.88033,6.2634 -1.12914,6.43466 c -0.0425,0.236221 -0.0602,0.442914 -0.0602,0.631891 0,0.905908 0.33426,1.66181 0.99449,2.28308 0.62599,0.585828 1.41496,0.922443 2.36103,1.01693 1.45748,-0.02953 2.74371,-0.490159 3.84922,-1.37126 0.83741,-0.668505 1.78465,-1.77402 2.85237,-3.31772 l 4.6193,-6.6945 -13.487,1.01693 z"
   style="fill:#1f1a17;fill-opacity:1" />
  <path
   id="12345678"
   class="fil0"
   d="m 44.2513,100.354 c 1.97953,-2.04686 2.95631,-4.1693 2.93859,-6.3697 -0.04252,-3.96261 -1.16575,-7.2508 -3.36851,-9.8764 -2.27008,-2.69056 -5.39647,-4.29922 -9.37207,-4.826 -0.988585,0.78071 -1.48701,1.51418 -1.48701,2.18859 0,0.466537 0.49134,1.1941 1.48111,2.18268 0.983861,0.993309 1.47402,1.73859 1.47402,2.22875 0,0.402757 -0.454725,1.01811 -1.35827,1.85197 -0.904727,0.83386 -1.36063,1.46575 -1.36063,1.89804 0,0.733466 0.529135,1.53189 1.58504,2.40709 0.612994,0.50197 0.915356,1.04055 0.915356,1.60276 0,1.25315 -1.55315,2.74371 -4.65474,4.45867 1.19528,-1.41969 1.79056,-2.64922 1.79056,-3.68387 0,-0.845671 -0.388584,-1.62048 -1.17166,-2.33032 -0.928349,-0.851577 -1.39489,-1.66181 -1.39489,-2.42481 0,-0.473623 0.411025,-1.14803 1.23662,-2.03504 0.819687,-0.881104 1.23307,-1.47756 1.23307,-1.79174 0,-0.543308 -0.407481,-1.04055 -1.22008,-1.49646 -0.771262,-0.419292 -1.15276,-1.03465 -1.15276,-1.84489 0,-0.692128 0.290552,-1.76221 0.866931,-3.21142 -3.87284,0.585828 -6.94844,2.29489 -9.22561,5.12127 -2.19804,2.73898 -3.29528,6.0449 -3.29528,9.91892 0,2.37638 1.01339,4.38781 3.04135,6.0319 -3.70985,-0.14173 -5.62797,-2.32441 -5.76734,-6.54096 0.425198,-5.12127 2.01497,-9.1075 4.78348,-11.9587 2.9315,-3.03308 6.98624,-4.54725 12.1571,-4.54725 5.16497,0 9.26931,1.50827 12.3213,4.51773 3.04725,3.01654 4.55316,7.04411 4.51064,12.0827 -0.01299,1.60276 -0.455907,2.99883 -1.32992,4.18111 -1.01339,1.37835 -2.40355,2.12953 -4.17639,2.26536 z" />
  <path
   id="123456789"
   class="fil0"
   d="m 57.0899,76.8982 c -1.42087,0.514962 -2.16733,1.22481 -2.22875,2.11772 -0.02953,0.413387 0.109843,0.751183 0.426379,1.01103 0.321261,0.259843 0.685041,0.390946 1.11024,0.390946 0.788978,0 1.97835,-0.04134 3.56221,-0.131103 1.58504,-0.08858 2.76733,-0.129922 3.56339,-0.129922 2.06339,0 3.92717,0.60945 5.58426,1.82245 1.78465,1.3063 2.6941,2.93859 2.73662,4.90159 l 5.08702,0.621261 c 0.126378,-1.05827 0.698033,-1.95709 1.70552,-2.68465 0.964963,-0.692128 2.00906,-1.03465 3.1382,-1.03465 1.29803,0 2.45788,0.484253 3.47127,1.44803 1.01929,0.970868 1.52953,2.08229 1.52953,3.34843 0,1.35945 -0.44882,2.5193 -1.34764,3.48308 -0.891734,0.957876 -2.03268,1.47874 -3.41694,1.54961 1.11733,-0.916538 1.8626,-1.82835 2.22756,-2.73308 0.255119,-0.614175 0.382678,-1.43032 0.382678,-2.45434 0,-0.561025 -0.249213,-1.12323 -0.74764,-1.67953 -0.563387,-0.625986 -1.21299,-0.94016 -1.94174,-0.94016 -1.07953,0 -1.87441,0.408662 -2.39174,1.2189 -0.338977,0.525592 -0.679135,1.50709 -1.0252,2.9445 l -6.34844,-0.692128 c 0,2.11182 -0.885829,3.9508 -2.65276,5.52993 -1.76693,1.57914 -3.73229,2.37166 -5.90671,2.37166 -0.272835,0 -2.83347,-0.118111 -7.67128,-0.354332 -0.84449,0.22441 -1.26851,0.614175 -1.26851,1.17048 -0.01181,0.881104 0.813781,1.73268 2.47087,2.542918 -2.78623,0 -4.18229,-0.96378 -4.1941,-2.897248 -0.01181,-1.02992 0.248032,-1.79882 0.777167,-2.30079 0.526773,-0.503151 1.31575,-0.751183 2.37284,-0.739372 0.230315,0 1.61457,0.07087 4.15749,0.218504 1.28622,0.07087 2.40355,0.106299 3.35552,0.106299 1.663,0 3.12048,-0.638978 4.36536,-1.91575 1.21299,-1.26614 1.82126,-2.71418 1.82126,-4.35237 0,-1.7693 -0.601182,-3.21733 -1.80237,-4.34174 -1.20945,-1.12914 -2.72127,-1.69134 -4.54725,-1.69134 -3.3567,0 -5.70474,0.03543 -7.04647,0.112205 -2.3126,-0.307087 -3.46536,-1.34174 -3.45355,-3.10394 0.01181,-1.86378 1.06772,-2.79213 3.16182,-2.79213 0.30945,0 0.636616,0.01772 0.983861,0.05906 z" />
  <path
   id="12345678910"
   class="fil0"
   d="m 89.9447,82.1506 c 0.170079,-1.69725 1.44567,-2.6315 3.83623,-2.80985 1.56024,0.09449 2.34331,0.792522 2.34331,2.1 0,0.22441 -0.0248,0.460631 -0.06732,0.709844 l -1.91811,11.2004 c -0.199607,0.550395 -0.297638,1.26024 -0.297638,2.12363 0,1.89213 1.14803,2.8382 3.43702,2.8382 1.81418,0 3.840948,-1.32402 6.081508,-3.97914 1.50355,-1.78111 2.90079,-3.86221 4.17521,-6.25749 l -2.02796,-1.14095 0.41339,-2.48977 3.07087,1.73268 c 3.57048,-6.10986 6.95671,-9.17837 10.167,-9.19727 1.52953,-0.01181 2.72009,0.414568 3.56339,1.27205 0.8433,0.857482 1.28032,2.04095 1.31693,3.54213 -0.61418,-0.904727 -1.31693,-1.53189 -2.10591,-1.86851 -0.69213,-0.289371 -1.62638,-0.431103 -2.82284,-0.431103 -1.99725,0 -4.63702,2.64331 -7.93348,7.92994 l 3.21733,1.78583 -0.43111,2.50158 -4.04883,-2.27008 -2.61615,3.90237 c -3.27166,4.88505 -6.76183,7.315759 -10.463394,7.298049 -3.78072,-0.0177 -5.6693,-1.703149 -5.6693,-5.044499 0,-0.603545 0.06024,-1.23544 0.177166,-1.89213 l 2.03859,-11.5559 c 0.04252,-0.237402 0.06614,-0.426379 0.06614,-0.556301 0,-0.568112 -0.223229,-0.851577 -0.679135,-0.851577 -0.570474,0 -1.51181,0.467718 -2.82284,1.40788 z" />
  <path
   id="1234567891011"
   class="fil0"
   d="m 127.2,82.1152 c 0.60118,-1.92284 1.97835,-2.88072 4.12796,-2.88072 1.15866,0.153544 1.74213,0.993309 1.74213,2.51339 0,0.450001 -0.0425,0.904727 -0.12756,1.35473 l -2.05158,11.0469 c -0.2126,0.721655 -0.32126,1.34882 -0.32126,1.8815 0,1.52481 0.85512,2.2878 2.56654,2.2878 0.13347,0 0.28465,0.0059 0.44291,0.01772 2.44016,0.07087 4.21182,-1.16457 5.32442,-3.70749 l 5.6197,-12.7748 c 0.82441,-2.9504 3.08387,-4.57088 6.77364,-4.86025 4.85552,0.50197 7.28388,2.37638 7.28388,5.61734 0,1.98189 -1.52363,3.3945 -4.5697,4.22836 4.9571,1.17166 7.37954,3.40158 7.2638,6.69568 -0.15708,4.32284 -3.68977,6.61773 -10.591,6.88348 l -0.80669,0.0295 c -2.3126,0.0945 -4.04292,-0.31889 -5.17796,-1.236613 -1.14095,-0.916538 -1.663,-2.26418 -1.57205,-4.0441 1.08071,2.29961 3.56339,3.53032 7.45868,3.70749 4.93466,-0.307087 7.48466,-2.08819 7.66773,-5.33978 0.14527,-2.80985 -2.41064,-5.01025 -7.66773,-6.60002 3.55749,-1.39016 5.37285,-2.96339 5.44489,-4.7256 -0.19961,-2.21221 -1.77756,-3.35316 -4.73387,-3.42402 -1.8815,-0.04134 -3.36261,1.22362 -4.44922,3.79017 l -5.83938,13.8567 c -1.11024,2.64331 -3.56221,3.986223 -7.36301,4.015753 -3.44056,0.0295 -5.16497,-1.272043 -5.16497,-3.909453 0,-0.454725 0.0366,-0.904727 0.11693,-1.34764 l 1.83308,-10.9004 c 0.25984,-0.881104 0.39331,-1.59095 0.39331,-2.12245 0,-0.810238 -0.30237,-1.2189 -0.91654,-1.2189 -0.60118,0 -1.50591,0.390946 -2.70709,1.16575 z" />
  <path
   id="123456789101112"
   class="fil0"
   d="m 165.968,76.9939 c -0.2185,0.928349 -0.32835,1.76221 -0.32835,2.51339 0,2.12245 0.90473,3.54804 2.70709,4.29332 1.09961,0.44882 2.17323,0.680317 3.22914,0.680317 1.17284,0 2.33741,-0.296457 3.49607,-0.881104 l 10.2957,-5.19922 c 2.14134,-1.08189 4.10198,-1.62048 5.87482,-1.62048 2.1,0 3.90237,0.762994 5.40237,2.28308 0.90355,0.762994 1.40197,1.9689 1.48701,3.62481 0.085,1.65591 -0.51023,2.99883 -1.77284,4.02757 0.41221,-1.04055 0.6189,-1.98071 0.6189,-2.82048 0,-1.44922 -0.55157,-2.59016 -1.663,-3.41221 -1.01339,-0.751183 -2.2878,-1.12441 -3.81733,-1.12441 -1.11024,0 -2.36103,0.190158 -3.75237,0.574017 l -9.37679,4.88505 c -4.22481,2.2004 -6.57285,4.826 -7.04647,7.87207 -0.0543,0.336615 -0.0791,0.702758 -0.0791,1.0937 0,2.8382 1.87559,5.09765 5.62088,6.77128 -4.15749,0.15354 -6.75592,-1.42559 -7.80592,-4.73741 -0.28583,-0.904727 -0.4252,-1.79764 -0.4252,-2.68465 0,-2.28308 0.97795,-4.42324 2.9256,-6.41694 -4.65474,-0.03543 -7.02285,-1.62638 -7.10671,-4.78466 -0.0425,-1.70906 0.46654,-3.35316 1.51654,-4.93702 z" />
  <path
   id="12345678910111213"
   class="fil0"
   d="m 201.305,81.9191 c 0.34016,-1.93347 1.6937,-2.90316 4.07363,-2.90316 0.32717,0 0.67914,0.01772 1.05591,0.04724 0.87992,0.562206 1.31575,1.37244 1.31575,2.4189 0,0.568112 -0.12047,1.1941 -0.36378,1.88622 l -1.6441,10.415 c -0.0791,0.460631 -0.11575,0.88701 -0.11575,1.27677 0,1.66772 0.8315,2.64449 2.48859,2.92205 0.43111,0.07087 0.89292,0.106299 1.39016,0.106299 1.86969,0 3.99922,-0.568112 6.39687,-1.69725 2.59843,-1.22362 4.83781,-2.88544 6.72521,-4.98544 2.21693,-2.45434 3.32717,-4.91458 3.32717,-7.37482 0,-3.17009 -1.64528,-4.826 -4.94174,-4.96773 -1.74804,-0.07087 -3.1382,0.568112 -4.15749,1.92756 0.12756,-2.26418 1.65709,-3.60709 4.58977,-4.02757 4.72678,0 7.2886,2.2063 7.67718,6.61773 -0.31535,4.71379 -2.42127,8.64687 -6.31891,11.8051 -3.51379,2.85001 -7.81773,4.58859 -12.9036,5.215761 -4.78938,-0.0709 -7.18584,-1.862601 -7.18584,-5.369301 0,-0.444096 0.0484,-0.923624 0.14528,-1.44922 l 1.92993,-10.6807 c 0.18779,-0.686222 0.28464,-1.24843 0.28464,-1.67953 0,-0.698033 -0.25393,-1.04646 -0.75827,-1.04646 -0.6248,0 -1.62638,0.513781 -3.01063,1.54252 z" />
  <path
   id="1234567891011121314"
   class="fil0"
   d="m 232.291,82.0384 c 0.17008,-1.95237 1.64528,-2.8689 4.43151,-2.74489 0.89764,0.124016 1.41378,0.822049 1.55315,2.1 l -0.78898,13.0288 c -0.14527,2.43071 0.97678,3.7193 3.36851,3.87284 2.18623,-0.141733 3.94607,-1.24725 5.27482,-3.31182 l 9.61538,-14.9622 c 1.28622,-2.00434 3.22205,-3.00355 5.80749,-2.99174 2.82875,0.372048 4.38899,2.00434 4.68663,4.90159 -0.58937,3.09922 -2.50158,4.56025 -5.73072,4.38308 2.36103,-1.9878 3.5445,-3.59647 3.5445,-4.826 0,-0.218504 -0.0307,-0.414568 -0.0969,-0.585828 -0.48543,-1.33583 -1.42559,-1.98662 -2.83465,-1.94528 -1.68662,0.05315 -2.8878,0.987404 -3.60473,2.80867 l -9.25042,14.3894 c -1.22599,2.67284 -3.68505,4.169298 -7.37482,4.488198 -3.75001,-0.49016 -5.68112,-2.229928 -5.79686,-5.215758 l 0.75945,-13.389 c 0.0543,-0.916538 -0.23031,-1.37244 -0.8563,-1.37244 -0.6189,0 -1.52363,0.455907 -2.70709,1.37244 z" />
  <path
   id="123456789101112131415"
   class="fil0"
   d="m 269.408,77.0293 c 1.6878,2.18741 3.55749,3.67206 5.60198,4.45277 1.05118,0.401576 2.20394,0.603545 3.47245,0.603545 1.20236,0 2.50749,-0.184252 3.90828,-0.556301 l 6.7134,-2.96339 c 1.98426,-0.869293 3.89174,-1.3063 5.71773,-1.3063 1.40315,0 2.74961,0.253938 4.03702,0.757088 2.85237,1.11733 4.37009,3.34725 4.55788,6.67679 -1.59095,-2.56654 -3.46536,-4.14568 -5.61497,-4.73151 -0.98268,-0.265749 -1.92993,-0.401576 -2.85237,-0.401576 -1.25551,0 -2.46379,0.253938 -3.62363,0.762994 l -7.47758,3.24568 c -1.65709,0.71575 -3.28938,1.07717 -4.89214,1.07717 -1.79646,0 -3.50788,-0.432284 -5.14726,-1.29567 -2.84056,-1.50237 -4.30277,-3.60709 -4.4008,-6.32127 z m 0,17.5996 c 1.34174,2.14016 2.48859,3.21142 3.43583,3.21142 0.63189,0 1.17756,-0.461812 1.63229,-1.39016 1.31693,-4.2756 2.70119,-6.43466 4.14568,-6.46419 1.08662,-0.02953 2.20276,0.6626 3.34489,2.08229 0.48543,0.596458 1.34055,1.90985 2.57953,3.9508 0.86811,1.42441 1.50591,2.14016 1.91811,2.14016 0.41929,0 0.96496,-0.71575 1.62638,-2.14016 1.00158,-2.15315 1.6689,-3.48426 1.99607,-3.99804 0.92953,-1.46103 1.9252,-2.21812 2.99292,-2.28308 1.51181,0.183071 2.9315,2.34213 4.26143,6.47009 0.51496,1.0878 1.15276,1.63229 1.91103,1.63229 1.0689,0 2.36812,-1.07126 3.89765,-3.21142 0,2.82638 -1.31103,4.79056 -3.93899,5.87836 -1.35473,-0.13583 -2.41654,-0.822049 -3.1878,-2.07048 -0.30236,-0.490159 -0.78898,-1.66772 -1.45512,-3.53032 -0.48661,-1.35945 -1.02047,-2.15788 -1.59685,-2.40709 -0.66732,0.290552 -1.24488,1.14803 -1.74213,2.57835 -0.68622,1.96418 -1.16575,3.16418 -1.42677,3.59647 -0.74646,1.22362 -1.80237,1.83308 -3.15001,1.83308 -1.41378,0 -2.62796,-0.574017 -3.64135,-1.72678 -0.4748,-0.538584 -1.18937,-1.68544 -2.1378,-3.44174 -0.76299,-1.39607 -1.45512,-2.25355 -2.09292,-2.56064 -0.54685,0.295276 -1.08071,1.07008 -1.59685,2.31142 -0.72874,1.73977 -1.22481,2.82757 -1.48701,3.25867 -0.74055,1.17166 -1.6937,1.89331 -2.87009,2.15906 -2.08937,-0.19488 -3.23032,-2.15315 -3.41812,-5.87836 z" />
  <path
   id="12345678910111213141516"
   class="fil0"
   d="m 322.026,82.3986 c 0,-1.0878 -0.32126,-1.9689 -0.96496,-2.64331 -0.64371,-0.674411 -1.52363,-1.01103 -2.62796,-1.01103 -2.06457,0 -3.95198,0.721655 -5.67639,2.16969 l -0.0909,-0.05906 c 0.24331,-1.12323 0.89292,-2.03977 1.94882,-2.74961 0.97796,-0.668505 2.08229,-0.999215 3.30828,-0.999215 1.57205,0 2.98583,0.431103 4.24253,1.29449 1.40197,0.969687 2.10591,2.18859 2.10591,3.65552 0,1.15276 -0.22441,2.03386 -0.66732,2.63741 -0.15709,0.218504 -0.8563,0.881104 -2.10709,1.99252 v 0.07677 c 2.81103,2.21812 4.213,4.65474 4.213,7.29805 0,2.13544 -0.8563,3.77954 -2.56772,4.92048 -1.48583,0.987404 -3.37442,1.478735 -5.66222,1.478735 -5.39647,0 -9.02601,-2.312595 -10.8957,-6.942535 l 0.0307,-0.07795 c 3.3567,3.54922 6.9012,5.32324 10.6394,5.32324 1.44449,0 2.71418,-0.390946 3.8008,-1.17166 1.21299,-0.875199 1.82008,-1.99252 1.82008,-3.36497 0,-1.41851 -0.3815,-2.82638 -1.14095,-4.23426 -0.75827,-1.40079 -1.74095,-2.47796 -2.95631,-3.22914 2.16733,-2.04567 3.24804,-3.5008 3.24804,-4.36418 z" />
 <g
   id="g20709"
   transform="matrix(2.9686983,0,0,2.9686983,295.3072,37.442675)"
   style="clip-rule:evenodd;fill-rule:evenodd;image-rendering:optimizeQuality;shape-rendering:geometricPrecision;text-rendering:geometricPrecision"><path
     style="fill:none;stroke:#1f1a17;stroke-width:0.529167;stroke-linecap:round;stroke-linejoin:miter;stroke-miterlimit:4;stroke-dasharray:none;stroke-opacity:1"
     d="M 3.7459906,7.3158702 5.5024381,9.0723177"
     id="path17647" /><path
     style="fill:none;stroke:#1f1a17;stroke-width:0.529167;stroke-linecap:round;stroke-linejoin:miter;stroke-miterlimit:4;stroke-dasharray:none;stroke-opacity:1"
     d="M 5.5024381,7.412498 3.7459906,9.1689455"
     id="path17647-3" /></g></g>
</svg>
