<svg xml:space="preserve" width="35" height="46" style="clip-rule:evenodd;fill-rule:evenodd;image-rendering:optimizeQuality;shape-rendering:geometricPrecision;text-rendering:geometricPrecision" viewBox="0 0 33.691 23.785" xmlns="http://www.w3.org/2000/svg">
    <path class="fil0" d="m-148.464-43.584.304-2.271 2.119-.313.272-1.585-2.094.324.383-2.281 2.087-.326.492-2.667c.012-.06.018-.148.018-.26 0-.58-.333-.864-.994-.864-.711 0-1.549.384-2.508 1.153.182-1.2.965-2.028 2.361-2.484.418-.047.808-.076 1.153-.076 1.73 0 2.598.686 2.598 2.051 0 .19-.018.415-.06.68l-.334 2.083 2.767-.415-.393 2.266-2.817.432-.236 1.59 2.797-.432-.413 2.236-2.737.426-.886 5.44c-.013.06-.013.196-.013.397 0 1.449.936 2.247 2.818 2.389 1.845.136 3.98-1.017 6.396-3.454l9.53-13.436c2.137-3.005 4.437-4.507 6.907-4.507.648 0 1.3.112 1.93.338 1.918.692 2.883 1.744 2.883 3.17 0 .313-.048.644-.145.987-1.348-1.567-2.762-2.348-4.243-2.348-1.96 0-3.878 1.367-5.748 4.105l-8.394 12.277c-2.902 3.477-5.827 5.228-8.771 5.245-1.53.012-2.853-.407-3.976-1.247-1.214-.923-1.821-2.112-1.821-3.56v-.22c.012-.1.019-.17.019-.212 0-.804.26-2.448.776-4.932l-2.027.3zM-80.643-52.78c3.856 3.2 5.834 7.204 5.937 12.018.085 4.216-2.622 6.594-8.122 7.125-3.283-.094-6.276-1.336-8.976-3.73-2.713 2.489-5.876 3.689-9.487 3.594-4.705-.609-7.18-2.88-7.424-6.818.243-4.454 2.222-8.392 5.936-11.817 3.496-3.222 7.06-4.83 10.69-4.83 2.27 0 4.327.371 6.172 1.122 1.657.68 3.418 1.792 5.274 3.336zm-10.816-2.3c-3.405.266-6.689 1.862-9.845 4.784-3.307 3.052-4.898 6.222-4.783 9.503.388 3.022 2.501 4.714 6.33 5.075 3.38-.237 6.017-1.816 7.905-4.737 1.953 2.987 4.72 4.53 8.297 4.63 4.156-.532 6.215-2.14 6.16-4.813-.073-3.342-1.573-6.553-4.497-9.629-2.987-3.134-6.174-4.743-9.567-4.814ZM-69.282-40.84c2.027 3.229 4.692 4.843 7.994 4.843.323 0 .638-.017.953-.047l2.847-.633 4.722-1.774v-.2l-2.106-12.68-4.182 1.159c-.747.1-1.457.153-2.12.153-4.563 0-7.263-2.4-8.108-7.202 1.84 3.27 4.474 4.903 7.915 4.903 1.524 0 3.169-.309 4.942-.924l10.353-3.595a12.862 12.862 0 0 1 2.696-.307c4 0 6.531 2.377 7.599 7.125-2.1-3.365-4.674-5.044-7.727-5.044-.723 0-1.486.1-2.275.296l-6.713 2.602 2.257 12.744 4.693-1.42c.674-.1 1.315-.153 1.93-.153 4.188 0 6.804 2.443 7.835 7.328-2.245-3.294-4.752-4.939-7.507-4.939-.147 0-.299.006-.456.018-1.827-.041-6.41 1.42-13.748 4.382h-.012c-1.239.391-2.415.586-3.532.586a8.974 8.974 0 0 1-4.626-1.265c-2.386-1.396-3.593-3.383-3.624-5.956zM-29.574-57.239c1.785.443 2.676 1.218 2.676 2.33 0 .36-.096.757-.284 1.189 1.19 1.029 2.695 1.543 4.51 1.543 1.297 0 2.724-.26 4.278-.786l6.617-2.242 4.146-1.632c1.224-.225 2.348-.337 3.374-.337 4.757 0 7.385 2.455 7.872 7.357-1.754-3.372-4.316-5.057-7.684-5.057-1.269 0-2.64.255-4.115.763l-8.8 3.075c-2.187.763-4.086 1.141-5.7 1.141-1.524 0-2.793-.336-3.801-1.005.262.9.395 1.857.395 2.887 0 1.933-.462 4.104-1.378 6.511-.2.787-.304 1.49-.304 2.117 0 2.501 1.47 3.685 4.401 3.548 2.956-.136 6.1-.887 9.42-2.252h.067c3.697-2.13 6.58-3.135 8.662-3.011 5.159.32 8.139 2.898 8.928 7.729-2.562-3.53-5.615-5.293-9.154-5.293-.885 0-1.802.113-2.75.337l-7.361 3.164c-3.235.989-5.93 1.485-8.097 1.485-1.899 0-3.387-.372-4.46-1.123-1.488-1.042-2.235-2.33-2.235-3.874 0-.846.224-1.768.68-2.762 1.28-2.81 1.918-5.34 1.918-7.593 0-2.254-.577-4.212-1.724-5.88-.583-.845-.874-1.465-.874-1.868 0-.36.26-.515.777-.46zM15.431-53.46c.085-2.408 2.24-3.714 6.458-3.934 2.866.362 4.766 1.805 5.706 4.336 1.615-1.337 3.558-2.005 5.84-2.005.75 0 1.559.077 2.42.23 3.102.556 4.657 2.538 4.657 5.939 0 .466-.02.857-.049 1.176l-.995 10.13c-.018.22-.031.391-.031.515 0 1.272.546 1.91 1.633 1.91.546 0 1.238-.177 2.07-.537-1.536 1.253-2.829 1.88-3.861 1.88-1.244 0-2.124-.905-2.646-2.714l1.36-11.776c.03-2.926-1.269-4.458-3.91-4.594-.2-.012-.4-.012-.6-.012-2.373 0-4.365.775-5.966 2.324-.384 1.342-1.318 2.223-2.805 2.656 3.127 2.56 4.686 5.18 4.686 7.853a7.3 7.3 0 0 1-.267 1.928c-1.238 2.94-3.976 4.412-8.218 4.412-.383 0-.747-.012-1.094-.03-5.68-.336-9.242-2.69-10.688-7.05 3.387 3.312 6.932 5.022 10.622 5.123 4.128-.25 6.228-1.727 6.29-4.442.017-.166.029-.331.029-.496 0-1.84-1.675-4.24-5.032-7.204 3.004-.763 4.51-2.177 4.51-4.246 0-.503-.091-1.052-.267-1.65-1.026-1.284-2.319-1.929-3.88-1.929-1.681 0-3.671.734-5.972 2.207zM64.364-45.547c1.056-2.401 2.028-4.116 2.914-5.133 1.796-2.047 4.151-3.07 7.064-3.07 2.246 0 4.165.846 5.748 2.543 1.53 1.656 2.295 3.59 2.295 5.802 0 2.17-.795 4.063-2.391 5.677-1.603 1.644-3.514 2.466-5.731 2.466 2.513-1.514 4.17-2.916 4.984-4.21.601-.958.904-2.271.904-3.933 0-1.585-.57-3.01-1.712-4.276-1.17-1.296-2.56-1.946-4.176-1.958-3.392-.018-5.942 2.011-7.666 6.092-.698 2.223-1.833 4.11-3.405 5.666-1.771 1.744-3.738 2.62-5.905 2.62-2.1 0-3.989-.645-5.67-1.93-2.032-1.56-3.053-3.707-3.053-6.433 0-2.395.863-4.371 2.593-5.92 1.723-1.555 3.817-2.288 6.275-2.206-2.64 1.194-4.492 2.549-5.56 4.07-.812 1.152-1.22 2.507-1.22 4.056 0 1.656.571 3.116 1.712 4.382 1.245 1.39 2.842 2.081 4.783 2.081 2.956 0 5.36-2.128 7.217-6.386zM87.811-57.286c1.554 3.222 4.273 4.83 8.17 4.83 1.038 0 2.161-.112 3.375-.342l10.038-3.673c1.348-.49 2.666-.738 3.94-.738 1.61 0 3.127.407 4.564 1.217 2.464 1.402 3.776 3.39 3.922 5.956-2.187-3.188-4.85-4.785-7.994-4.785-2.185 0-4.916.733-8.2 2.206 1.718 1.461 2.519 3.046 2.403 4.755-.255.781-.746 1.467-1.487 2.052-.898.71-1.499 1.313-1.802 1.805.17.637.783 1.495 1.85 2.566.96.964 1.44 1.816 1.44 2.56-.33 3.118-3 4.774-8.014 4.969 3.158-2.018 4.736-3.572 4.736-4.679 0-.07-.006-.142-.018-.212.042-.474-.487-1.337-1.591-2.59-1.099-1.26-1.632-2.13-1.59-2.608.037-.196.541-.787 1.524-1.776.977-.987 1.535-1.963 1.675-2.92-.14-1.385-.911-2.295-2.313-2.726-1.984.975-4.115 1.46-6.385 1.46-5.306-.864-8.055-3.307-8.243-7.327zM127.245-52.485c.516-2.016 1.796-2.962 3.83-2.838 1.439.094 2.155 1.04 2.155 2.838 0 .112-.109.81-.315 2.094l-.347 2.117 14.55-1.017c2.251-3.324 4.048-5.536 5.401-6.636 1.087-.887 2.3-1.341 3.642-1.359 3.399-.043 5.093 1.466 5.093 4.524-1.244-1.473-2.713-2.213-4.413-2.213-2.167 0-4.297 1.603-6.398 4.803l-6.348 9.675c-3.15 4.79-6.49 7.09-10.027 6.907-1.445-.07-2.726-.633-3.849-1.679-1.147-1.07-1.723-2.3-1.723-3.69 0-.142.012-.273.03-.397l1.936-11.668c.091-.574.14-1.046.14-1.414 0-.916-.28-1.37-.838-1.37-.54 0-1.378.442-2.519 1.323zm4.88 6.264-1.129 6.434c-.042.236-.06.443-.06.632 0 .906.334 1.662.994 2.283.626.586 1.415.923 2.361 1.017 1.458-.03 2.744-.49 3.85-1.371.837-.669 1.784-1.774 2.852-3.318l4.62-6.694-13.488 1.017zM-120.198 23.574c1.98-2.047 2.957-4.17 2.939-6.37-.043-3.962-1.166-7.25-3.369-9.876-2.27-2.69-5.396-4.3-9.372-4.826-.988.78-1.487 1.514-1.487 2.188 0 .467.492 1.194 1.481 2.183.984.993 1.474 1.739 1.474 2.229 0 .403-.454 1.018-1.358 1.852-.905.834-1.36 1.466-1.36 1.898 0 .733.529 1.532 1.585 2.407.613.502.915 1.04.915 1.603 0 1.253-1.553 2.743-4.655 4.458 1.195-1.42 1.79-2.649 1.79-3.684 0-.845-.388-1.62-1.171-2.33-.928-.851-1.395-1.662-1.395-2.425 0-.473.411-1.148 1.237-2.035.82-.88 1.233-1.477 1.233-1.791 0-.544-.408-1.041-1.22-1.497-.771-.42-1.153-1.035-1.153-1.845 0-.692.29-1.762.867-3.211-3.873.586-6.949 2.295-9.226 5.121-2.198 2.739-3.295 6.045-3.295 9.919 0 2.376 1.013 4.388 3.041 6.032-3.71-.142-5.628-2.325-5.767-6.541.425-5.121 2.015-9.108 4.784-11.959 2.931-3.033 6.986-4.547 12.157-4.547 5.165 0 9.269 1.508 12.32 4.518 3.048 3.016 4.554 7.044 4.512 12.082-.013 1.603-.456 3-1.33 4.181-1.014 1.379-2.404 2.13-4.177 2.266zM-107.36.118c-1.42.515-2.166 1.225-2.228 2.118-.03.413.11.751.426 1.01.322.26.686.392 1.11.392.79 0 1.98-.042 3.563-.131 1.585-.089 2.767-.13 3.563-.13 2.064 0 3.927.61 5.585 1.822 1.784 1.306 2.694 2.939 2.736 4.902l5.087.621c.127-1.058.698-1.957 1.706-2.685.965-.692 2.009-1.034 3.138-1.034 1.298 0 2.458.484 3.471 1.448 1.02.97 1.53 2.082 1.53 3.348 0 1.36-.45 2.52-1.348 3.483-.892.958-2.033 1.479-3.417 1.55 1.117-.917 1.863-1.828 2.228-2.733.255-.614.382-1.43.382-2.455 0-.56-.249-1.123-.747-1.68-.564-.625-1.213-.94-1.942-.94-1.08 0-1.874.41-2.392 1.22-.339.525-.679 1.507-1.025 2.944l-6.348-.692c0 2.112-.886 3.95-2.653 5.53s-3.732 2.372-5.907 2.372c-.273 0-2.833-.118-7.671-.355-.845.225-1.269.614-1.269 1.17-.011.882.814 1.733 2.471 2.544-2.786 0-4.182-.964-4.194-2.898-.012-1.03.248-1.798.777-2.3.527-.503 1.316-.752 2.373-.74.23 0 1.615.071 4.158.219 1.286.07 2.403.106 3.355.106 1.663 0 3.12-.639 4.366-1.916 1.213-1.266 1.82-2.714 1.82-4.352 0-1.77-.6-3.217-1.802-4.342-1.209-1.129-2.72-1.691-4.547-1.691-3.357 0-5.705.035-7.046.112-2.313-.307-3.466-1.342-3.454-3.104.012-1.864 1.068-2.792 3.162-2.792.31 0 .637.018.984.06zM-74.504 5.37c.17-1.697 1.445-2.631 3.836-2.81 1.56.095 2.343.793 2.343 2.1 0 .225-.025.461-.067.71l-1.918 11.2c-.2.551-.298 1.261-.298 2.125 0 1.892 1.148 2.838 3.437 2.838 1.814 0 3.841-1.324 6.082-3.98 1.503-1.78 2.9-3.862 4.175-6.257l-2.028-1.14.413-2.49 3.071 1.732C-51.888 3.288-48.5.22-45.29.201c1.53-.012 2.72.414 3.564 1.272.843.857 1.28 2.04 1.316 3.542-.614-.905-1.316-1.532-2.105-1.869-.693-.289-1.627-.43-2.823-.43-1.998 0-4.637 2.643-7.934 7.93l3.218 1.785-.432 2.502-4.048-2.27-2.617 3.902c-3.271 4.885-6.761 7.316-10.463 7.298-3.78-.018-5.67-1.703-5.67-5.044 0-.604.061-1.236.178-1.893l2.039-11.556c.042-.237.066-.426.066-.556 0-.568-.224-.851-.68-.851-.57 0-1.511.467-2.822 1.407zM-37.249 5.335c.601-1.923 1.978-2.88 4.128-2.88 1.159.153 1.742.993 1.742 2.513 0 .45-.042.904-.128 1.354l-2.051 11.047c-.213.722-.321 1.35-.321 1.882 0 1.525.855 2.288 2.566 2.288.134 0 .285.006.443.017 2.44.071 4.212-1.164 5.325-3.707l5.62-12.775c.824-2.95 3.083-4.57 6.773-4.86C-8.297.716-5.868 2.59-5.868 5.83c0 1.982-1.524 3.395-4.57 4.229 4.957 1.171 7.38 3.401 7.264 6.695-.157 4.323-3.69 6.618-10.591 6.884l-.807.03c-2.312.094-4.043-.32-5.178-1.237-1.14-.917-1.663-2.265-1.572-4.044 1.08 2.3 3.564 3.53 7.459 3.707 4.934-.307 7.484-2.088 7.668-5.34.145-2.81-2.411-5.01-7.668-6.6 3.557-1.39 5.373-2.963 5.445-4.725-.2-2.213-1.778-3.354-4.734-3.424-1.882-.042-3.363 1.223-4.45 3.79l-5.839 13.856c-1.11 2.644-3.562 3.987-7.363 4.016-3.44.03-5.165-1.272-5.165-3.91 0-.454.037-.904.117-1.347l1.833-10.9c.26-.881.394-1.591.394-2.123 0-.81-.303-1.219-.917-1.219-.601 0-1.506.391-2.707 1.166zM1.519.214c-.219.928-.328 1.762-.328 2.513 0 2.123.904 3.548 2.707 4.293 1.1.45 2.173.68 3.229.68 1.173 0 2.337-.296 3.496-.88l10.296-5.2C23.059.54 25.02 0 26.793 0c2.1 0 3.903.763 5.403 2.283.903.763 1.402 1.969 1.487 3.625.085 1.656-.51 2.999-1.773 4.027.412-1.04.619-1.98.619-2.82 0-1.45-.552-2.59-1.663-3.412-1.014-.751-2.288-1.125-3.817-1.125-1.11 0-2.361.19-3.753.574L13.92 8.037c-4.224 2.2-6.572 4.826-7.046 7.872-.054.337-.08.703-.08 1.094 0 2.838 1.876 5.098 5.622 6.771-4.158.154-6.756-1.425-7.806-4.737a8.86 8.86 0 0 1-.425-2.685c0-2.283.978-4.423 2.925-6.417C2.454 9.9.086 8.31.002 5.151-.04 3.44.47 1.798 1.52.214zM36.856 5.139c.34-1.933 1.694-2.903 4.074-2.903.327 0 .679.018 1.056.047.88.562 1.315 1.372 1.315 2.419 0 .568-.12 1.194-.364 1.886l-1.644 10.415c-.079.46-.115.887-.115 1.277 0 1.668.831 2.644 2.488 2.922.431.07.893.106 1.39.106 1.87 0 4-.568 6.397-1.697a20.931 20.931 0 0 0 6.725-4.985c2.217-2.455 3.328-4.915 3.328-7.375 0-3.17-1.646-4.826-4.942-4.968-1.748-.07-3.138.568-4.158 1.928.128-2.265 1.657-3.607 4.59-4.028 4.727 0 7.289 2.206 7.677 6.618-.315 4.714-2.42 8.647-6.319 11.805-3.513 2.85-7.817 4.588-12.903 5.216-4.79-.071-7.186-1.863-7.186-5.37 0-.444.048-.923.145-1.449l1.93-10.68c.188-.687.285-1.249.285-1.68 0-.698-.254-1.047-.758-1.047-.625 0-1.627.514-3.011 1.543zM67.842 5.258c.17-1.952 1.645-2.869 4.431-2.745.898.124 1.414.822 1.554 2.1l-.79 13.03c-.145 2.43.977 3.718 3.37 3.872 2.185-.142 3.945-1.247 5.274-3.312l9.615-14.962C92.583 1.237 94.518.237 97.104.249c2.829.372 4.389 2.005 4.686 4.902-.589 3.1-2.501 4.56-5.73 4.383 2.36-1.988 3.544-3.597 3.544-4.826 0-.219-.03-.415-.097-.586-.485-1.336-1.425-1.987-2.834-1.945-1.687.053-2.888.987-3.605 2.808l-9.25 14.39c-1.226 2.673-3.686 4.17-7.375 4.488-3.75-.49-5.681-2.23-5.797-5.216l.76-13.389c.054-.916-.231-1.372-.857-1.372-.619 0-1.524.456-2.707 1.372zM104.959.25c1.688 2.187 3.557 3.671 5.602 4.452 1.051.402 2.204.603 3.472.603 1.203 0 2.508-.184 3.909-.556l6.713-2.963C126.64.916 128.547.48 130.373.48c1.403 0 2.75.253 4.037.757 2.852 1.117 4.37 3.347 4.558 6.676-1.591-2.566-3.466-4.145-5.615-4.731a10.897 10.897 0 0 0-2.853-.402 8.924 8.924 0 0 0-3.623.763l-7.478 3.246c-1.657.716-3.29 1.077-4.892 1.077-1.796 0-3.508-.432-5.147-1.296-2.84-1.502-4.303-3.607-4.401-6.32zm0 17.599c1.342 2.14 2.489 3.211 3.436 3.211.632 0 1.177-.462 1.632-1.39 1.317-4.276 2.701-6.435 4.146-6.464 1.086-.03 2.203.662 3.345 2.082.485.597 1.34 1.91 2.58 3.95.867 1.425 1.505 2.141 1.917 2.141.42 0 .965-.716 1.627-2.14 1.001-2.153 1.669-3.484 1.996-3.998.93-1.461 1.925-2.218 2.993-2.283 1.511.183 2.931 2.342 4.261 6.47.515 1.088 1.153 1.632 1.911 1.632 1.069 0 2.368-1.071 3.898-3.211 0 2.826-1.311 4.79-3.94 5.878-1.354-.136-2.416-.822-3.187-2.07-.302-.49-.789-1.668-1.455-3.53-.487-1.36-1.02-2.159-1.597-2.408-.667.29-1.245 1.148-1.742 2.579-.686 1.964-1.166 3.164-1.427 3.596-.746 1.224-1.802 1.833-3.15 1.833-1.414 0-2.628-.574-3.641-1.727-.475-.538-1.19-1.685-2.138-3.441-.763-1.396-1.455-2.254-2.093-2.561-.547.295-1.08 1.07-1.597 2.311-.729 1.74-1.225 2.828-1.487 3.26-.74 1.17-1.694 1.892-2.87 2.158-2.09-.195-3.23-2.153-3.418-5.878zM157.577 5.618c0-1.087-.321-1.968-.965-2.643-.644-.674-1.524-1.01-2.628-1.01-2.065 0-3.952.72-5.676 2.169l-.091-.06c.243-1.122.893-2.039 1.949-2.749.978-.668 2.082-1 3.308-1 1.572 0 2.986.432 4.242 1.295 1.402.97 2.106 2.189 2.106 3.656 0 1.153-.224 2.034-.667 2.637-.157.219-.856.881-2.107 1.993v.077c2.81 2.218 4.213 4.654 4.213 7.298 0 2.135-.856 3.78-2.568 4.92-1.486.988-3.374 1.479-5.662 1.479-5.397 0-9.026-2.313-10.896-6.943l.03-.078c3.358 3.55 6.902 5.324 10.64 5.324 1.445 0 2.715-.391 3.801-1.172 1.213-.875 1.82-1.993 1.82-3.365 0-1.418-.381-2.826-1.14-4.234-.759-1.401-1.742-2.478-2.957-3.23 2.167-2.045 3.248-3.5 3.248-4.364z"/>
</svg>
