<svg width="35" height="46" viewBox="0 0 9.26 12.171" xmlns="http://www.w3.org/2000/svg">
    <path class="fil0" d="M.133 4.674c.045-.517.436-.76 1.173-.726.237.033.374.217.41.555l-.208 3.448c-.038.643.258.984.891 1.024.579-.037 1.044-.33 1.396-.876L6.339 4.14c.34-.53.853-.794 1.537-.791.748.098 1.16.53 1.24 1.297-.156.82-.662 1.206-1.517 1.16.625-.527.938-.952.938-1.278a.429.429 0 0 0-.026-.155c-.128-.353-.377-.525-.75-.514-.446.014-.764.26-.953.743L4.36 8.409c-.324.707-.975 1.103-1.951 1.188-.992-.13-1.503-.59-1.534-1.38l.201-3.543c.015-.243-.06-.363-.226-.363-.164 0-.404.12-.717.363z" style="clip-rule:evenodd;fill:#1f1a17;fill-rule:nonzero;stroke-width:.264583;image-rendering:optimizeQuality;shape-rendering:geometricPrecision;text-rendering:geometricPrecision"/>
    <g style="clip-rule:evenodd;fill-rule:evenodd;image-rendering:optimizeQuality;shape-rendering:geometricPrecision;text-rendering:geometricPrecision">
        <path style="fill:none;stroke:#1f1a17;stroke-width:.529167;stroke-linecap:round;stroke-linejoin:miter;stroke-miterlimit:4;stroke-dasharray:none;stroke-opacity:1" d="m3.746 7.316 1.756 1.756M5.502 7.412 3.746 9.17" transform="matrix(.78547 0 0 .78547 1.02 4.534)"/>
    </g>
</svg>
