<svg width="35" height="46" viewBox="0 0 9.26 12.171" xmlns="http://www.w3.org/2000/svg">
    <g transform="matrix(1 0 0 -1 .068 12.192)">
        <path class="fil0" d="M7.554 7.787c1.02-.847 1.544-1.906 1.571-3.18.022-1.116-.694-1.745-2.149-1.885-.869.025-1.66.353-2.375.987-.718-.659-1.554-.976-2.51-.951-1.245.16-1.9.762-1.964 1.804.064 1.178.588 2.22 1.57 3.126.925.853 1.868 1.278 2.829 1.278.6 0 1.145-.098 1.633-.297.438-.18.904-.474 1.395-.882zm-2.862.609c-.9-.071-1.77-.493-2.604-1.266C1.213 6.322.792 5.483.822 4.615c.103-.8.662-1.247 1.675-1.343.894.063 1.592.481 2.091 1.254.517-.79 1.25-1.199 2.196-1.226 1.1.141 1.644.567 1.63 1.274-.02.884-.417 1.734-1.19 2.548-.79.83-1.634 1.255-2.532 1.274z" style="clip-rule:evenodd;fill:#1f1a17;fill-rule:nonzero;stroke-width:.264583;image-rendering:optimizeQuality;shape-rendering:geometricPrecision;text-rendering:geometricPrecision"/>
        <circle style="clip-rule:evenodd;fill:#1f1a17;fill-opacity:1;fill-rule:evenodd;stroke:#1f1a17;stroke-width:.529167;stroke-linecap:round;stroke-opacity:1;image-rendering:optimizeQuality;shape-rendering:geometricPrecision;text-rendering:geometricPrecision" cx="4.626" cy="-10.922" transform="scale(1 -1)" r=".942"/>
    </g>
</svg>
