<svg
   width="3500"
   height="4600"
   viewBox="0 0 90.26 120.171"
   version="1.1"
   id="svg2"
   xmlns="http://www.w3.org/2000/svg"
   xmlns:svg="http://www.w3.org/2000/svg">
   <style>
   .path {
  stroke-dasharray: 50;
  stroke-dashoffset: 50;
  animation: dash 2s linear forwards;
}

@keyframes dash {
  to {
    stroke-dashoffset: 20;
  }
}

#path2 {
  animation-delay: 1.5s;
}
</style>

  <path
     class="path" fill="#fffff" stroke="#00000" stroke-width="4"
     d="M 4.812,3.624 C 3.911,3.694 3.042,4.116 2.207,4.89 1.332,5.697 0.911,6.536 0.942,7.404 1.044,8.204 1.604,8.651 2.617,8.747 3.511,8.684 4.209,8.267 4.707,7.493 5.225,8.283 5.957,8.692 6.903,8.719 8.003,8.578 8.548,8.152 8.533,7.445 8.513,6.561 8.117,5.711 7.343,4.897 6.553,4.068 5.71,3.642 4.812,3.624 Z"
     style="clip-rule:evenodd;fill:none;fill-rule:nonzero;stroke-width:0.39186196;image-rendering:optimizeQuality;shape-rendering:geometricPrecision;text-rendering:geometricPrecision;stroke:#000000;"
     filter="url(#inset)"
     id="path1" />
  <path
  class="path"
     style="fill:none;stroke:#1f1a17;stroke-width:0.391862;stroke-linecap:round;stroke-linejoin:miter;stroke-miterlimit:4; ;stroke-opacity:1"
     d="m 4.0553706,9.5812793 1.3792853,1.3792887 m 0,-1.3038831 -1.3792853,1.3808591"
     filter="url(#inset)"
     id="path2" />
</svg>


