<?xml-stylesheet type="text/css" href="css/style.css" ?>    
<svg xml:space="preserve" width="34.011" height="23.602" style="clip-rule:evenodd;fill-rule:evenodd;image-rendering:optimizeQuality;shape-rendering:geometricPrecision;text-rendering:geometricPrecision" xmlns="http://www.w3.org/2000/svg">
    <path class="fil0" d="M28.073 4.459c3.855 3.2 5.833 7.203 5.936 12.017.085 4.217-2.622 6.595-8.122 7.126-3.283-.094-6.276-1.336-8.976-3.731-2.713 2.49-5.876 3.69-9.487 3.595-4.705-.61-7.18-2.88-7.424-6.818.243-4.454 2.222-8.392 5.936-11.817C9.432 1.609 12.996 0 16.626 0c2.27 0 4.327.372 6.172 1.123 1.657.68 3.418 1.792 5.275 3.336zM17.256 2.158c-3.405.267-6.689 1.863-9.845 4.785-3.307 3.052-4.898 6.222-4.783 9.503.389 3.022 2.502 4.714 6.33 5.075 3.381-.237 6.017-1.817 7.905-4.737 1.953 2.987 4.72 4.53 8.297 4.63 4.156-.532 6.215-2.14 6.16-4.813-.073-3.342-1.573-6.553-4.497-9.629-2.987-3.134-6.174-4.743-9.567-4.814Z" />


</svg>
