<svg width="35" height="46" viewBox="0 0 9.26 12.171" xmlns="http://www.w3.org/2000/svg">
    <path class="fil0" d="M7.55 4.393c1.02.847 1.544 1.906 1.57 3.18.023 1.116-.693 1.745-2.148 1.885-.869-.025-1.66-.353-2.375-.987-.718.659-1.555.976-2.51.951-1.245-.16-1.9-.761-1.964-1.804.064-1.178.587-2.22 1.57-3.126.925-.853 1.868-1.278 2.828-1.278.601 0 1.145.098 1.634.297.438.18.904.474 1.395.882zm-2.862-.608c-.9.07-1.77.492-2.604 1.266C1.209 5.858.788 6.697.818 7.565c.103.8.662 1.247 1.675 1.343.894-.063 1.592-.48 2.091-1.254.517.79 1.25 1.199 2.196 1.226 1.1-.141 1.644-.567 1.63-1.274-.02-.884-.417-1.734-1.19-2.548-.79-.829-1.634-1.255-2.532-1.273z" style="clip-rule:evenodd;fill:#1f1a17;fill-rule:nonzero;stroke-width:.264583;image-rendering:optimizeQuality;shape-rendering:geometricPrecision;text-rendering:geometricPrecision"/>
    <circle style="clip-rule:evenodd;fill:none;fill-rule:evenodd;stroke:#1f1a17;stroke-width:.529167;stroke-linecap:round;stroke-opacity:1;image-rendering:optimizeQuality;shape-rendering:geometricPrecision;text-rendering:geometricPrecision" cx="4.622" cy="1.259" r=".942"/>
</svg>
