<svg xml:space="preserve" width="35" height="46" style="clip-rule:evenodd;fill-rule:evenodd;image-rendering:optimizeQuality;shape-rendering:geometricPrecision;text-rendering:geometricPrecision" version="1.1" id="svg26" xmlns="http://www.w3.org/2000/svg">
    <defs id="defs4">
        <style type="text/css" id="style2">
            .fil0{fill:#1f1a17;fill-rule:nonzero}
        </style>
    </defs>
    <g id="Layer_x0020_1" transform="translate(-164.449 -76.78)">
        <path class="fil0" d="m15.985 33.196.304-2.271 2.119-.313.272-1.585-2.094.325.383-2.282 2.087-.326.492-2.667c.012-.06.018-.148.018-.26 0-.58-.333-.863-.994-.863-.711 0-1.549.383-2.508 1.152.182-1.2.965-2.028 2.361-2.484.418-.047.808-.076 1.153-.076 1.73 0 2.598.686 2.598 2.051 0 .19-.018.415-.06.68l-.334 2.083 2.767-.415-.393 2.266-2.817.432-.236 1.59 2.797-.431-.413 2.235-2.737.426-.886 5.441c-.013.059-.013.195-.013.396 0 1.449.936 2.247 2.818 2.389 1.845.136 3.98-1.017 6.396-3.454l9.53-13.436c2.137-3.005 4.437-4.507 6.907-4.507.649 0 1.3.112 1.93.338 1.918.692 2.883 1.744 2.883 3.17 0 .313-.048.644-.145.987-1.348-1.567-2.762-2.348-4.243-2.348-1.96 0-3.878 1.367-5.748 4.105L31.785 37.82c-2.902 3.477-5.827 5.228-8.771 5.246-1.53.011-2.853-.408-3.976-1.248-1.214-.923-1.821-2.112-1.821-3.56v-.22c.012-.1.019-.17.019-.212 0-.804.26-2.448.776-4.932l-2.027.301z" id="path7"/>
        <path id="1" class="fil0" d="M83.806 24c3.856 3.2 5.834 7.204 5.937 12.018.085 4.216-2.622 6.594-8.122 7.125-3.283-.094-6.276-1.335-8.976-3.73-2.713 2.49-5.876 3.69-9.487 3.595-4.705-.61-7.18-2.88-7.424-6.819.243-4.454 2.222-8.392 5.936-11.817 3.496-3.222 7.06-4.83 10.69-4.83 2.27 0 4.327.371 6.172 1.123 1.657.68 3.418 1.791 5.274 3.335zM72.99 21.7c-3.405.266-6.689 1.862-9.845 4.784-3.307 3.052-4.898 6.222-4.783 9.503.388 3.023 2.501 4.714 6.33 5.075 3.381-.237 6.017-1.816 7.905-4.737 1.953 2.987 4.72 4.53 8.297 4.631 4.156-.533 6.215-2.141 6.16-4.814-.073-3.341-1.573-6.553-4.497-9.629-2.987-3.134-6.174-4.743-9.567-4.814Z"/>
        <path id="12" class="fil0" d="M95.168 35.94c2.026 3.229 4.69 4.844 7.993 4.844.323 0 .638-.018.953-.048l2.847-.633 4.722-1.774v-.2l-2.106-12.68-4.182 1.159c-.747.1-1.457.153-2.12.153-4.563 0-7.263-2.4-8.107-7.202 1.838 3.27 4.474 4.903 7.914 4.903 1.524 0 3.169-.308 4.942-.924l10.353-3.595a12.862 12.862 0 0 1 2.696-.307c4 0 6.531 2.377 7.599 7.125-2.1-3.365-4.674-5.044-7.727-5.044-.723 0-1.486.1-2.275.296l-6.713 2.602 2.257 12.744 4.693-1.42c.674-.1 1.315-.153 1.93-.153 4.188 0 6.804 2.443 7.835 7.328-2.245-3.294-4.752-4.938-7.507-4.938-.147 0-.299.005-.456.017-1.827-.041-6.41 1.42-13.748 4.382h-.012c-1.239.391-2.415.586-3.531.586a8.974 8.974 0 0 1-4.627-1.265c-2.386-1.396-3.593-3.383-3.623-5.956z"/>
        <path id="123" class="fil0" d="M134.875 19.541c1.785.443 2.676 1.218 2.676 2.33 0 .361-.096.757-.284 1.189 1.19 1.029 2.695 1.544 4.51 1.544 1.297 0 2.724-.261 4.278-.787l6.617-2.242 4.146-1.632c1.224-.224 2.348-.337 3.374-.337 4.757 0 7.385 2.455 7.872 7.357-1.754-3.372-4.316-5.057-7.684-5.057-1.269 0-2.64.255-4.115.763l-8.8 3.076c-2.187.763-4.086 1.14-5.7 1.14-1.524 0-2.793-.336-3.801-1.005.262.9.395 1.857.395 2.887 0 1.933-.462 4.104-1.378 6.511-.2.787-.304 1.49-.304 2.117 0 2.502 1.47 3.685 4.401 3.548 2.956-.136 6.1-.887 9.42-2.252h.067c3.697-2.13 6.58-3.135 8.662-3.011 5.159.32 8.139 2.898 8.928 7.73-2.562-3.531-5.615-5.293-9.154-5.293-.885 0-1.802.112-2.75.336l-7.361 3.164c-3.235.989-5.93 1.485-8.097 1.485-1.899 0-3.387-.372-4.46-1.123-1.488-1.042-2.235-2.33-2.235-3.874 0-.846.224-1.768.68-2.762 1.28-2.81 1.918-5.34 1.918-7.593s-.577-4.212-1.724-5.88c-.582-.845-.874-1.465-.874-1.868 0-.36.26-.515.777-.46z"/>
        <path id="1234" class="fil0" d="M180.455 20.771c.085-2.407 2.24-3.713 6.458-3.933 2.866.362 4.766 1.805 5.706 4.336 1.615-1.337 3.558-2.005 5.84-2.005.75 0 1.559.076 2.42.23 3.102.556 4.657 2.538 4.657 5.938 0 .467-.02.858-.049 1.177l-.995 10.13c-.018.22-.031.391-.031.515 0 1.272.546 1.91 1.633 1.91.546 0 1.238-.177 2.07-.537-1.536 1.253-2.83 1.88-3.861 1.88-1.244 0-2.124-.905-2.646-2.714l1.36-11.776c.03-2.927-1.27-4.459-3.91-4.594-.2-.012-.4-.012-.6-.012-2.373 0-4.365.775-5.966 2.324-.384 1.342-1.318 2.223-2.805 2.655 3.126 2.561 4.686 5.18 4.686 7.854a7.3 7.3 0 0 1-.267 1.928c-1.238 2.939-3.976 4.412-8.219 4.412-.382 0-.746-.012-1.093-.03-5.68-.336-9.242-2.69-10.688-7.05 3.387 3.312 6.932 5.022 10.622 5.123 4.128-.25 6.228-1.727 6.289-4.443.018-.165.03-.33.03-.496 0-1.84-1.675-4.24-5.032-7.203 3.004-.763 4.51-2.177 4.51-4.246 0-.503-.091-1.053-.267-1.65-1.026-1.284-2.319-1.929-3.88-1.929-1.681 0-3.671.733-5.972 2.206z"/>
        <path id="12345" class="fil0" d="M227.878 31.933c1.055-2.401 2.028-4.116 2.913-5.133 1.797-2.047 4.152-3.07 7.065-3.07 2.246 0 4.164.846 5.748 2.543 1.53 1.656 2.295 3.59 2.295 5.802 0 2.17-.795 4.063-2.392 5.677-1.603 1.644-3.514 2.466-5.73 2.466 2.513-1.514 4.17-2.916 4.984-4.21.6-.958.903-2.272.903-3.933 0-1.586-.57-3.011-1.711-4.276-1.17-1.296-2.56-1.947-4.177-1.958-3.392-.018-5.942 2.011-7.665 6.092-.698 2.223-1.833 4.11-3.405 5.666-1.772 1.744-3.738 2.62-5.906 2.62-2.1 0-3.988-.646-5.669-1.93-2.033-1.56-3.053-3.707-3.053-6.433 0-2.395.862-4.371 2.592-5.92 1.724-1.555 3.818-2.289 6.276-2.206-2.64 1.194-4.492 2.549-5.56 4.069-.812 1.153-1.22 2.507-1.22 4.057 0 1.656.57 3.116 1.712 4.382 1.244 1.39 2.841 2.081 4.783 2.081 2.955 0 5.359-2.128 7.217-6.386z"/>
        <path id="123456" class="fil0" d="M252.26 19.494c1.554 3.222 4.273 4.83 8.17 4.83 1.038 0 2.161-.111 3.375-.342l10.039-3.673c1.347-.49 2.665-.738 3.94-.738 1.608 0 3.126.407 4.563 1.218 2.464 1.402 3.776 3.388 3.922 5.955-2.186-3.188-4.85-4.785-7.994-4.785-2.185 0-4.916.734-8.2 2.206 1.718 1.461 2.519 3.046 2.403 4.755-.255.781-.746 1.467-1.487 2.052-.897.71-1.499 1.313-1.802 1.805.17.638.783 1.495 1.85 2.566.96.964 1.44 1.816 1.44 2.561-.33 3.117-3 4.773-8.013 4.968 3.157-2.018 4.735-3.572 4.735-4.679 0-.07-.006-.141-.018-.212.042-.474-.487-1.337-1.591-2.59-1.098-1.26-1.632-2.13-1.59-2.608.037-.196.541-.787 1.524-1.775.977-.988 1.535-1.963 1.675-2.921-.14-1.385-.911-2.295-2.313-2.726-1.984.975-4.115 1.46-6.385 1.46-5.306-.864-8.055-3.306-8.243-7.327z"/>
        <path id="1234567" class="fil0" d="M291.694 24.295c.516-2.016 1.796-2.962 3.83-2.838 1.439.095 2.155 1.04 2.155 2.838 0 .113-.109.81-.315 2.094l-.347 2.117 14.55-1.017c2.252-3.324 4.048-5.536 5.402-6.635 1.086-.887 2.3-1.342 3.64-1.36 3.4-.042 5.094 1.466 5.094 4.524-1.244-1.473-2.713-2.212-4.413-2.212-2.167 0-4.297 1.602-6.398 4.802l-6.348 9.676c-3.15 4.79-6.49 7.09-10.027 6.907-1.445-.071-2.726-.633-3.849-1.68-1.147-1.07-1.723-2.3-1.723-3.69 0-.141.012-.273.03-.397l1.936-11.668c.091-.574.14-1.046.14-1.413 0-.917-.279-1.372-.838-1.372-.54 0-1.378.443-2.519 1.324zm4.88 6.264-1.129 6.434c-.042.237-.06.443-.06.632 0 .906.334 1.662.994 2.283.626.586 1.415.923 2.362 1.017 1.457-.03 2.743-.49 3.849-1.371.837-.669 1.784-1.774 2.852-3.318l4.62-6.694-13.488 1.017z"/>
        <path id="12345678" class="fil0" d="M116.38 101.334c1.98-2.046 2.957-4.169 2.939-6.37-.043-3.962-1.166-7.25-3.369-9.876-2.27-2.69-5.396-4.299-9.372-4.826-.988.781-1.487 1.514-1.487 2.189 0 .466.492 1.194 1.481 2.183.984.993 1.474 1.738 1.474 2.228 0 .403-.454 1.018-1.358 1.852-.905.834-1.36 1.466-1.36 1.898 0 .734.529 1.532 1.585 2.407.613.502.915 1.04.915 1.603 0 1.253-1.553 2.744-4.655 4.459 1.195-1.42 1.79-2.65 1.79-3.684 0-.846-.388-1.62-1.17-2.33-.93-.852-1.396-1.662-1.396-2.425 0-.474.411-1.148 1.237-2.035.82-.881 1.233-1.478 1.233-1.792 0-.543-.408-1.04-1.22-1.496-.771-.42-1.153-1.035-1.153-1.845 0-.692.29-1.763.867-3.212-3.873.586-6.948 2.295-9.226 5.122-2.198 2.739-3.295 6.044-3.295 9.918 0 2.377 1.013 4.388 3.041 6.032-3.71-.141-5.628-2.324-5.767-6.54.425-5.122 2.015-9.108 4.784-11.96 2.931-3.032 6.986-4.547 12.157-4.547 5.165 0 9.269 1.509 12.32 4.518 3.048 3.017 4.554 7.044 4.512 12.083-.013 1.603-.456 2.999-1.33 4.181-1.014 1.378-2.404 2.13-4.177 2.265z"/>
        <path id="123456789" class="fil0" d="M168.992 86.874c-1.42.515-2.167 1.225-2.229 2.118-.03.413.11.751.427 1.01.32.26.685.392 1.11.392.789 0 1.978-.041 3.562-.131 1.585-.089 2.767-.13 3.563-.13 2.064 0 3.928.61 5.585 1.822 1.784 1.307 2.694 2.939 2.736 4.902l5.087.621c.127-1.058.698-1.957 1.706-2.685.965-.692 2.009-1.034 3.138-1.034 1.298 0 2.458.484 3.471 1.448 1.02.97 1.53 2.082 1.53 3.348 0 1.36-.449 2.52-1.348 3.483-.892.958-2.032 1.48-3.417 1.55 1.118-.917 1.863-1.828 2.228-2.733.255-.614.383-1.43.383-2.454 0-.561-.25-1.124-.748-1.68-.563-.626-1.213-.94-1.942-.94-1.08 0-1.874.409-2.392 1.219-.339.525-.679 1.507-1.025 2.944l-6.348-.692c0 2.112-.886 3.951-2.653 5.53-1.767 1.58-3.732 2.372-5.907 2.372-.273 0-2.833-.118-7.671-.355-.844.225-1.268.615-1.268 1.17-.012.882.813 1.734 2.47 2.544-2.786 0-4.182-.964-4.194-2.897-.012-1.03.248-1.8.777-2.301.527-.503 1.316-.751 2.373-.74.23 0 1.615.071 4.158.219 1.286.07 2.403.106 3.355.106 1.663 0 3.12-.639 4.366-1.916 1.213-1.266 1.82-2.714 1.82-4.352 0-1.77-.6-3.217-1.801-4.342-1.21-1.129-2.722-1.691-4.548-1.691-3.356 0-5.704.035-7.046.112-2.313-.307-3.466-1.342-3.454-3.104.012-1.864 1.068-2.792 3.162-2.792.31 0 .637.018.984.06z"/>
        <path id="12345678910" class="fil0" d="M13.281 83.446c.17-1.697 1.446-2.631 3.837-2.81 1.56.095 2.343.793 2.343 2.1 0 .225-.025.461-.067.71l-1.919 11.2c-.2.551-.297 1.261-.297 2.124 0 1.893 1.148 2.839 3.437 2.839 1.814 0 3.84-1.324 6.081-3.98 1.504-1.78 2.901-3.862 4.176-6.257l-2.028-1.141.413-2.49 3.07 1.733c3.571-6.11 6.958-9.178 10.168-9.197 1.53-.012 2.72.414 3.563 1.272.843.857 1.28 2.04 1.317 3.542-.614-.905-1.317-1.532-2.106-1.869-.692-.289-1.626-.43-2.823-.43-1.997 0-4.637 2.643-7.933 7.93l3.217 1.785-.43 2.502-4.05-2.27-2.616 3.902c-3.272 4.885-6.762 7.316-10.463 7.298-3.781-.018-5.67-1.703-5.67-5.045 0-.603.06-1.235.178-1.892l2.038-11.556a3.47 3.47 0 0 0 .066-.556c0-.568-.223-.851-.679-.851-.57 0-1.512.467-2.823 1.407z"/>
        <path id="1234567891011" class="fil0" d="M128.039 81.795c.6-1.923 1.978-2.88 4.128-2.88 1.158.153 1.742.993 1.742 2.513 0 .45-.043.904-.128 1.354L131.73 93.83c-.212.722-.32 1.35-.32 1.882 0 1.525.854 2.288 2.566 2.288.133 0 .284.006.443.017 2.44.071 4.212-1.164 5.324-3.707l5.62-12.775c.824-2.95 3.084-4.57 6.773-4.86 4.856.502 7.284 2.376 7.284 5.617 0 1.982-1.523 3.395-4.57 4.229 4.958 1.171 7.38 3.401 7.264 6.695-.157 4.323-3.69 6.618-10.59 6.884l-.807.03c-2.313.094-4.043-.32-5.178-1.237-1.141-.917-1.663-2.265-1.572-4.045 1.08 2.3 3.563 3.53 7.458 3.708 4.935-.307 7.485-2.088 7.668-5.34.145-2.81-2.41-5.01-7.668-6.6 3.558-1.39 5.373-2.963 5.445-4.725-.2-2.213-1.777-3.354-4.734-3.424-1.881-.042-3.362 1.223-4.449 3.79l-5.84 13.856c-1.11 2.644-3.561 3.987-7.362 4.016-3.44.03-5.165-1.272-5.165-3.91 0-.454.036-.904.117-1.347l1.833-10.9c.26-.881.393-1.591.393-2.123 0-.81-.302-1.219-.916-1.219-.602 0-1.506.391-2.707 1.166z"/>
        <path id="12345678910111212" class="fil0" d="M204.474 80.377c.34-1.934 1.693-2.903 4.073-2.903.327 0 .68.017 1.056.047.88.562 1.316 1.372 1.316 2.419 0 .568-.12 1.194-.364 1.886l-1.644 10.415c-.08.46-.116.887-.116 1.277 0 1.667.832 2.644 2.489 2.922.431.07.893.106 1.39.106 1.87 0 4-.568 6.397-1.697a20.931 20.931 0 0 0 6.725-4.986c2.217-2.454 3.327-4.914 3.327-7.375 0-3.17-1.645-4.826-4.941-4.967-1.749-.071-3.139.568-4.158 1.927.128-2.264 1.657-3.607 4.59-4.027 4.727 0 7.288 2.206 7.677 6.617-.315 4.714-2.421 8.647-6.319 11.806-3.514 2.85-7.818 4.588-12.904 5.215-4.789-.07-7.185-1.862-7.185-5.369 0-.444.048-.924.145-1.45l1.93-10.68c.188-.686.284-1.248.284-1.68 0-.697-.253-1.046-.758-1.046-.625 0-1.626.514-3.01 1.543z"/>
        <path id="1234567891011121400" class="fil0" d="M232.291 82.038c.17-1.952 1.645-2.869 4.432-2.744.897.124 1.413.822 1.553 2.1l-.79 13.028c-.145 2.431.977 3.72 3.37 3.873 2.185-.142 3.945-1.247 5.274-3.312l9.615-14.962c1.287-2.004 3.222-3.003 5.808-2.992 2.829.372 4.389 2.005 4.687 4.902-.59 3.1-2.502 4.56-5.731 4.383 2.36-1.988 3.544-3.596 3.544-4.826 0-.218-.03-.415-.097-.586-.485-1.336-1.425-1.986-2.834-1.945-1.687.053-2.888.987-3.605 2.809l-9.25 14.389c-1.226 2.673-3.685 4.17-7.375 4.488-3.75-.49-5.681-2.23-5.797-5.216l.76-13.389c.054-.916-.231-1.372-.857-1.372-.619 0-1.524.456-2.707 1.372z"/>
        <path id="123456789101112130000" class="fil0" d="M269.408 77.03c1.688 2.187 3.557 3.671 5.602 4.452 1.051.402 2.204.604 3.472.604 1.203 0 2.508-.185 3.909-.557l6.713-2.963c1.984-.87 3.892-1.306 5.718-1.306 1.403 0 2.75.254 4.037.757 2.852 1.117 4.37 3.347 4.558 6.677-1.591-2.567-3.466-4.146-5.615-4.732a10.897 10.897 0 0 0-2.853-.402 8.924 8.924 0 0 0-3.623.763l-7.478 3.246c-1.657.716-3.29 1.077-4.892 1.077-1.796 0-3.508-.432-5.147-1.295-2.84-1.503-4.303-3.608-4.401-6.322zm0 17.599c1.342 2.14 2.489 3.211 3.436 3.211.632 0 1.177-.461 1.632-1.39 1.317-4.275 2.701-6.434 4.146-6.464 1.086-.03 2.203.663 3.345 2.082.485.597 1.34 1.91 2.58 3.951.867 1.424 1.505 2.14 1.917 2.14.42 0 .965-.716 1.627-2.14 1.001-2.153 1.669-3.484 1.996-3.998.93-1.461 1.925-2.218 2.993-2.283 1.512.183 2.931 2.342 4.261 6.47.515 1.088 1.153 1.632 1.911 1.632 1.07 0 2.368-1.07 3.898-3.211 0 2.826-1.311 4.79-3.94 5.878-1.354-.136-2.416-.822-3.187-2.07-.302-.49-.789-1.668-1.455-3.53-.487-1.36-1.02-2.158-1.597-2.408-.667.29-1.245 1.148-1.742 2.579-.686 1.964-1.166 3.164-1.427 3.596-.746 1.224-1.802 1.833-3.15 1.833-1.414 0-2.628-.574-3.641-1.727-.475-.538-1.19-1.685-2.138-3.441-.763-1.396-1.455-2.254-2.093-2.56-.547.294-1.08 1.07-1.597 2.31-.729 1.74-1.225 2.828-1.487 3.26-.74 1.17-1.693 1.893-2.87 2.158-2.09-.195-3.23-2.153-3.418-5.878z"/>
        <path id="1.2345678910111212e+22" class="fil0" d="M322.026 82.399c0-1.088-.321-1.97-.965-2.644-.644-.674-1.524-1.01-2.628-1.01-2.064 0-3.952.72-5.676 2.169l-.091-.06c.243-1.122.893-2.039 1.949-2.749.978-.668 2.082-.999 3.308-.999 1.572 0 2.986.431 4.242 1.295 1.402.97 2.106 2.188 2.106 3.655 0 1.153-.224 2.034-.667 2.637-.157.219-.856.882-2.107 1.993v.077c2.81 2.218 4.213 4.655 4.213 7.298 0 2.135-.856 3.78-2.568 4.92-1.486.988-3.374 1.479-5.662 1.479-5.396 0-9.026-2.313-10.896-6.942l.031-.078c3.357 3.549 6.901 5.323 10.64 5.323 1.444 0 2.714-.391 3.8-1.172 1.213-.875 1.82-1.992 1.82-3.365 0-1.418-.381-2.826-1.14-4.234-.759-1.4-1.742-2.478-2.957-3.23 2.167-2.045 3.248-3.5 3.248-4.363z"/>
        <g id="g20709" transform="matrix(2.9687 0 0 2.9687 167.77 103.395)" style="clip-rule:evenodd;fill-rule:evenodd;image-rendering:optimizeQuality;shape-rendering:geometricPrecision;text-rendering:geometricPrecision">
            <path style="fill:none;stroke:#1f1a17;stroke-width:.529167;stroke-linecap:round;stroke-linejoin:miter;stroke-miterlimit:4;stroke-dasharray:none;stroke-opacity:1" d="m3.746 7.316 1.756 1.756" id="path17647"/>
            <path style="fill:none;stroke:#1f1a17;stroke-width:.529167;stroke-linecap:round;stroke-linejoin:miter;stroke-miterlimit:4;stroke-dasharray:none;stroke-opacity:1" d="M5.502 7.412 3.746 9.17" id="path17647-3"/>
        </g>
        <ellipse style="clip-rule:evenodd;fill:none;fill-opacity:1;fill-rule:evenodd;stroke:#1f1a17;stroke-width:1.60617;stroke-miterlimit:4;stroke-dasharray:none;stroke-opacity:1;image-rendering:optimizeQuality;shape-rendering:geometricPrecision;text-rendering:geometricPrecision" id="path52" cx="181.984" cy="118.437" rx="3.506" ry="3.473"/>
    </g>
</svg>
